<svg width="316" height="210" viewBox="0 0 316 210" fill="none" xmlns="http://www.w3.org/2000/svg">
<path d="M113.349 120.857C124.179 101.807 144.836 87.1801 166.703 88.5892C150.573 106.13 141.168 128.81 140.15 152.618C139.791 161.801 140.348 172.052 134.251 178.928C130.457 183.206 124.658 185.278 118.956 185.713C113.254 186.148 107.554 185.118 101.928 184.092L100.563 184.511C100.044 162.604 102.52 139.907 113.349 120.857Z" fill="#F0F0F0"/>
<path d="M166.736 89.0479C150.565 96.8323 136.777 109.833 128.312 125.689C126.482 129.117 124.924 132.753 124.245 136.598C123.565 140.445 124.04 144.107 125.354 147.761C126.555 151.101 128.17 154.378 128.539 157.952C128.927 161.719 127.541 165.242 125.046 168.037C121.993 171.458 117.893 173.577 113.812 175.511C109.28 177.657 104.54 179.815 101.33 183.822C100.941 184.307 100.211 183.675 100.599 183.19C106.183 176.22 115.742 174.91 122.37 169.295C125.463 166.674 127.785 163.106 127.638 158.926C127.51 155.27 125.847 151.888 124.602 148.517C123.294 144.977 122.642 141.417 123.111 137.643C123.591 133.782 125.01 130.077 126.744 126.617C130.655 118.815 136.008 111.652 142.14 105.46C149.187 98.342 157.4 92.4822 166.423 88.134C166.982 87.8651 167.291 88.7807 166.736 89.0479Z" fill="white"/>
<path d="M130.792 120.39C128.313 118.577 126.559 115.942 125.843 112.956C125.128 109.97 125.497 106.826 126.885 104.087C127.168 103.533 128.041 103.947 127.758 104.501C126.46 107.049 126.117 109.978 126.789 112.757C127.461 115.537 129.104 117.984 131.423 119.659C131.926 120.023 131.292 120.752 130.792 120.39Z" fill="white"/>
<path d="M124.522 146.147C130.733 145.239 136.375 142.024 140.321 137.142C140.712 136.658 141.442 137.289 141.052 137.773C136.936 142.846 131.059 146.18 124.592 147.11C123.976 147.199 123.909 146.235 124.522 146.147V146.147Z" fill="white"/>
<path d="M149.664 99.5304C150.477 100.432 151.501 101.117 152.645 101.524C153.788 101.932 155.015 102.049 156.214 101.866C156.829 101.77 156.896 102.733 156.285 102.829C154.959 103.025 153.604 102.894 152.34 102.447C151.076 101.999 149.94 101.249 149.033 100.261C148.94 100.176 148.883 100.057 148.873 99.9308C148.864 99.8043 148.903 99.6791 148.983 99.5804C149.067 99.4841 149.186 99.4247 149.313 99.4154C149.441 99.406 149.567 99.4474 149.664 99.5304Z" fill="white"/>
<path d="M210.213 148.684C209.831 148.755 209.448 148.826 209.063 148.904C203.928 149.883 198.881 151.278 193.972 153.075C193.591 153.208 193.206 153.348 192.829 153.492C181.049 157.947 170.198 164.55 160.828 172.966C157.103 176.318 153.638 179.949 150.464 183.827C146.08 189.183 141.753 195.339 136.024 198.831C135.431 199.202 134.815 199.536 134.18 199.831L101.18 186.143C101.121 186.074 101.058 186.013 100.998 185.944L99.6555 185.458C99.8053 185.246 99.9651 185.03 100.115 184.819C100.201 184.696 100.295 184.576 100.381 184.453C100.441 184.372 100.501 184.291 100.551 184.214C100.571 184.187 100.591 184.16 100.608 184.141C100.657 184.064 100.711 183.998 100.757 183.929C101.648 182.719 102.548 181.513 103.458 180.311C103.461 180.303 103.461 180.303 103.472 180.299C110.432 171.158 118.216 162.518 127.064 155.334C127.33 155.118 127.599 154.894 127.88 154.685C131.887 151.469 136.149 148.585 140.625 146.064C143.08 144.691 145.604 143.443 148.185 142.325C154.861 139.45 161.947 137.643 169.185 136.97C183.613 135.63 198.309 138.919 209.374 147.983C209.657 148.215 209.933 148.444 210.213 148.684Z" fill="#F0F0F0"/>
<path d="M209.965 149.072C192.367 145.552 173.53 147.631 157.225 155.195C153.7 156.83 150.267 158.795 147.409 161.456C144.55 164.118 142.725 167.328 141.574 171.036C140.522 174.427 139.838 178.016 137.981 181.091C136.023 184.333 132.795 186.311 129.12 187.041C124.623 187.934 120.073 187.158 115.651 186.244C110.74 185.23 105.656 184.099 100.681 185.365C100.078 185.519 99.875 184.575 100.477 184.421C109.132 182.218 117.553 186.926 126.226 186.434C130.273 186.204 134.276 184.753 136.676 181.327C138.775 178.33 139.483 174.63 140.518 171.188C141.605 167.574 143.228 164.339 145.875 161.608C148.582 158.814 151.946 156.71 155.414 154.992C163.234 151.117 171.821 148.62 180.445 147.368C190.357 145.928 200.443 146.193 210.265 148.154C210.873 148.276 210.569 149.193 209.965 149.072V149.072Z" fill="white"/>
<path d="M162.395 152.456C161.507 149.517 161.693 146.357 162.92 143.542C164.147 140.726 166.334 138.439 169.092 137.087C169.651 136.816 170.099 137.671 169.539 137.943C166.969 139.197 164.931 141.328 163.795 143.952C162.658 146.576 162.496 149.52 163.339 152.253C163.522 152.847 162.577 153.047 162.395 152.456Z" fill="white"/>
<path d="M141.881 169.247C147.387 172.262 153.828 173.092 159.918 171.569C160.521 171.418 160.724 172.362 160.122 172.513C153.781 174.086 147.081 173.209 141.357 170.059C140.812 169.758 141.339 168.948 141.881 169.247Z" fill="white"/>
<path d="M190.023 147.164C190.129 148.373 190.535 149.536 191.202 150.55C191.869 151.564 192.778 152.396 193.847 152.972C194.396 153.265 193.869 154.075 193.323 153.783C192.146 153.142 191.143 152.222 190.403 151.103C189.663 149.985 189.209 148.702 189.079 147.367C189.056 147.243 189.082 147.114 189.15 147.007C189.219 146.901 189.326 146.824 189.449 146.794C189.574 146.767 189.705 146.791 189.812 146.861C189.919 146.93 189.995 147.039 190.023 147.164Z" fill="white"/>
<path d="M147.35 171.266C142.729 148.92 136.952 141.47 136.952 141.47L134.745 139.759L132.091 137.697L132.103 137.432L131.474 137.218L131.326 137.103L131.084 136.917L131.045 136.959L130.963 137.045L118.953 132.962L103.716 127.787L96.6608 118.616C95.5118 117.123 94.0324 115.916 92.3387 115.09C90.645 114.264 88.783 113.841 86.8986 113.855L64.3658 114.022C61.3191 114.044 58.391 115.206 56.1572 117.277L41.3467 131.015L18.2692 142.036L18.2302 141.998L17.9879 142.171L14.4222 143.876L14.5693 144.641L12.3624 146.234C12.3624 146.234 6.58544 153.166 1.96386 173.958C0.788182 179.249 0.209471 190.598 0.000587007 204.583C-0.00990521 205.29 0.120351 205.993 0.383778 206.649C0.647205 207.306 1.03855 207.904 1.53506 208.408C2.03156 208.912 2.62332 209.312 3.27594 209.586C3.92855 209.859 4.62898 210 5.33652 210H128.598V210H143.983C144.69 210 145.39 209.859 146.042 209.586C146.694 209.313 147.286 208.913 147.782 208.41C148.279 207.906 148.67 207.309 148.934 206.653C149.198 205.997 149.329 205.295 149.319 204.588C149.115 189.371 148.536 177.003 147.35 171.266Z" fill="#3F3D56"/>
<path d="M163.165 19.4872C158.37 19.4872 153.77 21.3922 150.379 24.7831C146.988 28.1741 145.083 32.7732 145.083 37.5687C145.083 42.3642 146.988 46.9633 150.379 50.3543C153.77 53.7452 158.37 55.6502 163.165 55.6502H297.918C302.714 55.6502 307.313 53.7452 310.704 50.3543C314.095 46.9633 316 42.3642 316 37.5687C316 32.7732 314.095 28.1741 310.704 24.7831C307.313 21.3922 302.714 19.4872 297.918 19.4872H163.165Z" fill="#E5E5E5"/>
<path d="M163.165 23.1465C159.34 23.1465 155.672 24.666 152.967 27.3707C150.262 30.0754 148.743 33.7437 148.743 37.5687C148.743 41.3937 150.262 45.062 152.967 47.7667C155.672 50.4714 159.34 51.9909 163.165 51.9909H297.918C301.743 51.9909 305.412 50.4714 308.116 47.7667C310.821 45.062 312.341 41.3937 312.341 37.5687C312.341 33.7437 310.821 30.0754 308.116 27.3707C305.412 24.666 301.743 23.1465 297.918 23.1465H163.165Z" fill="white"/>
<path d="M79.1708 105.39C95.4744 105.39 108.691 92.1735 108.691 75.8703C108.691 59.567 95.4744 46.3506 79.1708 46.3506C62.8673 46.3506 49.6506 59.567 49.6506 75.8703C49.6506 92.1735 62.8673 105.39 79.1708 105.39Z" fill="#9E616A"/>
<path d="M71.6189 103.944C71.4928 103.667 71.367 103.388 71.2416 103.109C71.2899 103.11 71.3378 103.117 71.3861 103.118L71.6189 103.944Z" fill="#2F2E41"/>
<path d="M48.8296 47.6931C50.3227 46.5021 52.0677 45.4062 53.9766 45.4678C55.8855 45.5293 57.8213 47.2534 57.4258 49.1218C60.9321 42.9138 66.513 38.1391 73.1889 35.6359C79.8649 33.1326 87.2093 33.0607 93.9329 35.4329C98.6774 37.1067 103.33 40.4554 104.42 45.3668C104.7 46.6276 104.76 48.0101 105.547 49.0339C106.539 50.3247 108.439 50.6167 110.002 50.1626C110.018 50.1581 110.034 50.1535 110.049 50.1488C110.313 50.0586 110.598 50.0497 110.868 50.1234C111.137 50.197 111.378 50.3497 111.56 50.5617C111.741 50.7738 111.855 51.0355 111.886 51.3129C111.917 51.5902 111.864 51.8706 111.734 52.1177L110.392 54.6213C112.084 54.9985 113.843 54.9611 115.517 54.5123C115.795 54.4393 116.089 54.4542 116.359 54.5549C116.628 54.6556 116.86 54.8372 117.022 55.0748C117.184 55.3123 117.269 55.5942 117.264 55.8818C117.26 56.1693 117.166 56.4485 116.997 56.6809C112.571 62.7581 105.175 66.6824 97.6288 66.6363C92.2651 66.6036 86.8462 64.7551 81.6261 65.9885C79.6067 66.4657 77.7197 67.3889 76.1036 68.6904C74.4875 69.9919 73.1833 71.6388 72.2867 73.5101C71.3901 75.3814 70.9238 77.4297 70.9221 79.5047C70.9204 81.5797 71.3832 83.6288 72.2767 85.5016C70.6731 83.7476 67.5731 84.1628 65.9327 85.8826C64.2924 87.6024 63.8677 90.1692 64.033 92.54C64.2858 96.1662 65.7065 99.583 67.2043 102.909C54.6468 102.513 42.7694 93.7045 38.7714 81.7904C34.7567 69.8264 38.9643 55.5628 48.8296 47.6931Z" fill="#2F2E41"/>
<path opacity="0.2" d="M29.0555 164.52L37.3353 209.567L42.3033 210L29.0555 164.52Z" fill="black"/>
<path opacity="0.2" d="M120.259 161.122L111.979 209.535L107.011 210L120.259 161.122Z" fill="black"/>
<path d="M192.93 46.1924H166.12C166.034 46.1929 165.95 46.1767 165.871 46.1445C165.792 46.1123 165.72 46.0648 165.66 46.0048C165.6 45.9448 165.552 45.8734 165.519 45.7947C165.486 45.7161 165.469 45.6318 165.469 45.5466C165.469 45.4614 165.486 45.3771 165.519 45.2985C165.552 45.2198 165.6 45.1484 165.66 45.0884C165.72 45.0284 165.792 44.9809 165.871 44.9487C165.95 44.9165 166.034 44.9003 166.12 44.9008H192.93C193.101 44.902 193.264 44.9705 193.384 45.0915C193.504 45.2125 193.572 45.3761 193.572 45.5466C193.572 45.7171 193.504 45.8807 193.384 46.0017C193.264 46.1227 193.101 46.1912 192.93 46.1924Z" fill="#6C63FF"/>
<path d="M226.941 46.4076H200.131C200.045 46.4082 199.961 46.392 199.882 46.3598C199.803 46.3276 199.732 46.2801 199.671 46.2201C199.611 46.16 199.563 46.0887 199.53 46.01C199.497 45.9314 199.48 45.8471 199.48 45.7619C199.48 45.6767 199.497 45.5924 199.53 45.5137C199.563 45.4351 199.611 45.3637 199.671 45.3037C199.732 45.2437 199.803 45.1962 199.882 45.164C199.961 45.1318 200.045 45.1155 200.131 45.1161H226.941C227.027 45.1155 227.111 45.1318 227.19 45.164C227.269 45.1962 227.341 45.2437 227.401 45.3037C227.461 45.3637 227.509 45.4351 227.542 45.5137C227.575 45.5924 227.592 45.6767 227.592 45.7619C227.592 45.8471 227.575 45.9314 227.542 46.01C227.509 46.0887 227.461 46.16 227.401 46.2201C227.341 46.2801 227.269 46.3276 227.19 46.3598C227.111 46.392 227.027 46.4082 226.941 46.4076Z" fill="#6C63FF"/>
<path d="M260.953 46.6229H234.142C233.971 46.6217 233.808 46.5531 233.688 46.4322C233.568 46.3112 233.5 46.1476 233.5 45.9771C233.5 45.8066 233.568 45.643 233.688 45.522C233.808 45.401 233.971 45.3325 234.142 45.3313H260.953C261.038 45.3307 261.122 45.347 261.201 45.3792C261.28 45.4114 261.352 45.4589 261.412 45.5189C261.473 45.5789 261.52 45.6503 261.553 45.7289C261.586 45.8076 261.603 45.8919 261.603 45.9771C261.603 46.0623 261.586 46.1466 261.553 46.2252C261.52 46.3039 261.473 46.3752 261.412 46.4353C261.352 46.4953 261.28 46.5428 261.201 46.575C261.122 46.6072 261.038 46.6234 260.953 46.6229H260.953Z" fill="#6C63FF"/>
<path d="M294.964 46.8381H268.153C267.982 46.8369 267.819 46.7684 267.699 46.6474C267.579 46.5264 267.511 46.3628 267.511 46.1923C267.511 46.0218 267.579 45.8582 267.699 45.7373C267.819 45.6163 267.982 45.5477 268.153 45.5466H294.964C295.134 45.5477 295.297 45.6163 295.418 45.7373C295.538 45.8582 295.605 46.0218 295.605 46.1923C295.605 46.3628 295.538 46.5264 295.418 46.6474C295.297 46.7684 295.134 46.8369 294.964 46.8381Z" fill="#6C63FF"/>
<path d="M179.466 40.2493C182.218 40.2493 184.449 38.0184 184.449 35.2664C184.449 32.5144 182.218 30.2835 179.466 30.2835C176.714 30.2835 174.483 32.5144 174.483 35.2664C174.483 38.0184 176.714 40.2493 179.466 40.2493Z" fill="#6C63FF"/>
<path d="M213.683 40.2493C216.435 40.2493 218.666 38.0184 218.666 35.2664C218.666 32.5144 216.435 30.2835 213.683 30.2835C210.931 30.2835 208.7 32.5144 208.7 35.2664C208.7 38.0184 210.931 40.2493 213.683 40.2493Z" fill="#6C63FF"/>
<path d="M247.899 40.2493C250.651 40.2493 252.882 38.0184 252.882 35.2664C252.882 32.5144 250.651 30.2835 247.899 30.2835C245.147 30.2835 242.916 32.5144 242.916 35.2664C242.916 38.0184 245.147 40.2493 247.899 40.2493Z" fill="#6C63FF"/>
<path d="M282.116 40.2493C284.868 40.2493 287.099 38.0184 287.099 35.2664C287.099 32.5144 284.868 30.2835 282.116 30.2835C279.364 30.2835 277.133 32.5144 277.133 35.2664C277.133 38.0184 279.364 40.2493 282.116 40.2493Z" fill="#6C63FF"/>
</svg>
