<svg width="377" height="234" viewBox="0 0 377 234" fill="none" xmlns="http://www.w3.org/2000/svg">
<g clip-path="url(#clip0_2396_67882)">
<path d="M26.1626 216.765C27.8819 217.37 29.7278 217.522 31.5226 217.205C33.3173 216.888 35.0004 216.113 36.4097 214.955C39.9988 211.936 41.1254 206.961 42.0396 202.354L44.7476 188.73L39.078 192.643C35.0006 195.457 30.8317 198.362 28.0083 202.438C25.185 206.515 23.9528 212.079 26.221 216.49" fill="#E6E6E6"/>
<path d="M26.6474 233.26C26.0736 229.07 25.4834 224.827 25.8859 220.592C26.2435 216.831 27.3879 213.157 29.7186 210.145C30.9557 208.549 32.461 207.182 34.1668 206.105C34.6118 205.824 35.0208 206.53 34.5782 206.81C31.6268 208.68 29.3439 211.44 28.0588 214.695C26.6394 218.313 26.4116 222.258 26.6581 226.102C26.8061 228.427 27.1194 230.735 27.4355 233.043C27.461 233.147 27.4456 233.257 27.3927 233.351C27.3398 233.444 27.2532 233.514 27.1507 233.545C27.0465 233.573 26.9353 233.559 26.8414 233.506C26.7475 233.452 26.6785 233.364 26.6492 233.26L26.6474 233.26Z" fill="#F2F2F2"/>
<path d="M140.351 142.987C139.934 143.185 139.48 143.292 139.02 143.301L96.2482 144.477C94.468 144.516 92.7453 143.845 91.4592 142.61C90.173 141.376 89.4287 139.68 89.39 137.895C89.3513 136.111 90.0214 134.384 91.2528 133.095C92.4842 131.806 94.1762 131.06 95.9564 131.021L138.728 129.844C139.594 129.826 140.432 130.154 141.058 130.754C141.684 131.355 142.047 132.18 142.066 133.048L142.216 139.954C142.229 140.586 142.06 141.208 141.729 141.746C141.398 142.284 140.92 142.715 140.351 142.987Z" fill="#6C63FF"/>
<path d="M85.4701 233.348H78.5788C77.7123 233.347 76.8816 233.001 76.2689 232.387C75.6562 231.773 75.3115 230.94 75.3105 230.071V172.499C75.3115 171.63 75.6562 170.798 76.2689 170.184C76.8816 169.569 77.7123 169.224 78.5788 169.223H85.4701C86.3366 169.224 87.1673 169.569 87.7801 170.184C88.3928 170.798 88.7374 171.63 88.7384 172.499V230.071C88.7374 230.94 88.3928 231.773 87.7801 232.387C87.1673 233.001 86.3366 233.347 85.4701 233.348Z" fill="#6C63FF"/>
<path d="M103.769 233.348H96.8777C96.0112 233.347 95.1804 233.001 94.5677 232.387C93.955 231.773 93.6103 230.94 93.6094 230.071V172.499C93.6103 171.63 93.955 170.798 94.5677 170.184C95.1804 169.569 96.0112 169.224 96.8777 169.223H103.769C104.636 169.224 105.466 169.569 106.079 170.184C106.692 170.798 107.036 171.63 107.037 172.499V230.071C107.036 230.94 106.692 231.773 106.079 232.387C105.466 233.001 104.636 233.347 103.769 233.348Z" fill="#6C63FF"/>
<path d="M91.8466 109.374C104.998 109.374 115.659 98.6873 115.659 85.505C115.659 72.3226 104.998 61.6362 91.8466 61.6362C78.6956 61.6362 68.0347 72.3226 68.0347 85.505C68.0347 98.6873 78.6956 109.374 91.8466 109.374Z" fill="#6C63FF"/>
<path d="M99.9293 189.638H82.7989C79.2391 189.652 75.7389 188.722 72.6527 186.944C69.5664 185.166 67.0036 182.601 65.2237 179.511C63.4438 176.421 62.5099 172.914 62.5166 169.346C62.5234 165.777 63.4704 162.274 65.262 159.191L89.2183 117.598C89.4847 117.136 89.8678 116.752 90.3291 116.485C90.7905 116.218 91.3138 116.077 91.8466 116.077C92.3793 116.077 92.9026 116.218 93.364 116.485C93.8253 116.752 94.2085 117.136 94.4748 117.598L117.949 158.353C119.775 161.524 120.736 165.12 120.736 168.782C120.736 172.443 119.775 176.039 117.949 179.21C116.122 182.38 113.496 185.013 110.333 186.844C107.17 188.674 103.582 189.638 99.9293 189.638Z" fill="#2F2E41"/>
<path d="M86.2458 184.3C86.0479 183.882 85.9411 183.428 85.9326 182.966L84.7587 140.092C84.72 138.308 85.39 136.581 86.6215 135.292C87.8529 134.002 89.5448 133.256 91.325 133.218C93.1052 133.179 94.8279 133.85 96.114 135.085C97.4002 136.319 98.1445 138.015 98.1832 139.8L99.3569 182.673C99.3748 183.541 99.0484 184.382 98.4492 185.009C97.85 185.636 97.0269 186 96.1607 186.02L89.2712 186.17C88.6408 186.183 88.0201 186.014 87.4834 185.682C86.9468 185.35 86.5171 184.87 86.2458 184.3Z" fill="#6C63FF"/>
<path d="M89.6373 67.861C92.5303 71.6535 97.1231 74.1976 101.977 73.5952C106.6 73.0216 110.413 69.7921 111.37 65.1684C111.787 62.9824 111.675 60.7278 111.041 58.5945C110.408 56.4613 109.272 54.512 107.73 52.9109C104.458 49.4614 99.7753 47.6059 95.1404 46.9696C86.3606 45.7643 77.3435 48.8644 70.7051 54.6462C67.3714 57.5206 64.7104 61.0959 62.9114 65.118C61.1784 69.1104 60.3531 73.4392 60.4952 77.7908C60.7503 86.3906 64.5082 94.9738 70.9924 100.677C71.7977 101.383 72.6406 102.045 73.5174 102.659C74.2569 103.18 74.9576 101.963 74.2243 101.447C67.5841 96.7778 63.3485 89.18 62.1861 81.1969C61.5772 77.1745 61.8487 73.0676 62.9817 69.1609C64.1147 65.2543 66.0821 61.6415 68.7473 58.5732C74.1093 52.4619 81.9712 48.4897 90.114 48.1338C98.3076 47.7756 108.547 51.4424 110.08 60.585C110.767 64.6828 109.239 68.9902 105.493 71.0417C101.482 73.2383 96.5639 72.3343 93.1171 69.4976C92.2731 68.8057 91.5113 68.0188 90.8467 67.1524C90.3065 66.4442 89.0894 67.1428 89.6373 67.861H89.6373Z" fill="#2F2E41"/>
<path d="M330.591 5.53949L128.562 34.7938L142.41 130.889L344.439 101.635L330.591 5.53949Z" fill="#F1F1F1"/>
<path d="M326.002 14.6163L135.526 42.1976L147.08 122.373L337.556 94.7916L326.002 14.6163Z" fill="white"/>
<path d="M329.705 -3.49291e-06L127.675 29.2543L128.915 37.8576L330.944 8.60329L329.705 -3.49291e-06Z" fill="#E5E5E5"/>
<path d="M134.782 35.0008C135.67 35.0008 136.39 34.2795 136.39 33.3897C136.39 32.4999 135.67 31.7786 134.782 31.7786C133.895 31.7786 133.175 32.4999 133.175 33.3897C133.175 34.2795 133.895 35.0008 134.782 35.0008Z" fill="white"/>
<path d="M140.82 34.1265C141.708 34.1265 142.428 33.4052 142.428 32.5154C142.428 31.6256 141.708 30.9042 140.82 30.9042C139.933 30.9042 139.213 31.6256 139.213 32.5154C139.213 33.4052 139.933 34.1265 140.82 34.1265Z" fill="white"/>
<path d="M146.859 33.2521C147.746 33.2521 148.466 32.5308 148.466 31.641C148.466 30.7512 147.746 30.0298 146.859 30.0298C145.971 30.0298 145.251 30.7512 145.251 31.641C145.251 32.5308 145.971 33.2521 146.859 33.2521Z" fill="white"/>
<path d="M377 46.8871H172.874V143.98H377V46.8871Z" fill="#E6E6E6"/>
<path d="M371.163 55.213H178.711V136.22H371.163V55.213Z" fill="white"/>
<path d="M376.913 41.2775H172.787V49.9701H376.913V41.2775Z" fill="#CBCBCB"/>
<path d="M179.231 48.0001C180.119 48.0001 180.838 47.2788 180.838 46.389C180.838 45.4992 180.119 44.7778 179.231 44.7778C178.343 44.7778 177.624 45.4992 177.624 46.389C177.624 47.2788 178.343 48.0001 179.231 48.0001Z" fill="white"/>
<path d="M185.332 48.0001C186.219 48.0001 186.939 47.2788 186.939 46.389C186.939 45.4992 186.219 44.7778 185.332 44.7778C184.444 44.7778 183.724 45.4992 183.724 46.389C183.724 47.2788 184.444 48.0001 185.332 48.0001Z" fill="white"/>
<path d="M191.433 48.0001C192.32 48.0001 193.04 47.2788 193.04 46.389C193.04 45.4992 192.32 44.7778 191.433 44.7778C190.545 44.7778 189.825 45.4992 189.825 46.389C189.825 47.2788 190.545 48.0001 191.433 48.0001Z" fill="white"/>
<path d="M316.712 67.5292H289.607V69.5713H316.712V67.5292Z" fill="#E6E6E6"/>
<path d="M331.463 73.5241H289.607V75.5662H331.463V73.5241Z" fill="#E6E6E6"/>
<path d="M324.154 79.2335H290.043V81.2756H324.154V79.2335Z" fill="#E6E6E6"/>
<path d="M309.521 85.498H289.607V87.5401H309.521V85.498Z" fill="#E6E6E6"/>
<path d="M319.662 91.6171H289.607V93.6592H319.662V91.6171Z" fill="#E6E6E6"/>
<path d="M280.573 66.8868H277.254V70.2136H280.573V66.8868Z" fill="#E6E6E6"/>
<path d="M280.573 72.8817H277.254V76.2086H280.573V72.8817Z" fill="#E6E6E6"/>
<path d="M280.573 78.5911H277.254V81.918H280.573V78.5911Z" fill="#E6E6E6"/>
<path d="M280.573 84.8556H277.254V88.1824H280.573V84.8556Z" fill="#E6E6E6"/>
<path d="M280.573 90.9747H277.254V94.3016H280.573V90.9747Z" fill="#E6E6E6"/>
<path d="M316.712 97.7744H289.607V99.8165H316.712V97.7744Z" fill="#E6E6E6"/>
<path d="M331.463 103.769H289.607V105.811H331.463V103.769Z" fill="#E6E6E6"/>
<path d="M324.154 109.479H290.043V111.521H324.154V109.479Z" fill="#E6E6E6"/>
<path d="M309.521 115.743H289.607V117.785H309.521V115.743Z" fill="#E6E6E6"/>
<path d="M319.662 121.862H289.607V123.904H319.662V121.862Z" fill="#E6E6E6"/>
<path d="M280.573 97.1321H277.254V100.459H280.573V97.1321Z" fill="#E6E6E6"/>
<path d="M280.573 103.127H277.254V106.454H280.573V103.127Z" fill="#E6E6E6"/>
<path d="M280.573 108.836H277.254V112.163H280.573V108.836Z" fill="#E6E6E6"/>
<path d="M280.573 115.101H277.254V118.428H280.573V115.101Z" fill="#E6E6E6"/>
<path d="M280.573 121.22H277.254V124.547H280.573V121.22Z" fill="#E6E6E6"/>
<path d="M230.967 113.793H203.863V115.835H230.967V113.793Z" fill="#E6E6E6"/>
<path d="M234.347 119.099H200.236V121.141H234.347V119.099Z" fill="#E6E6E6"/>
<path d="M235.032 88.0325C235.03 91.1017 234.235 94.1182 232.724 96.7873C231.212 99.4564 229.036 101.687 226.407 103.261C223.779 104.835 220.788 105.699 217.727 105.768C214.665 105.837 211.639 105.109 208.942 103.656L208.939 103.652C206.184 102.165 203.872 99.972 202.238 97.2972C200.605 94.6224 199.708 91.5612 199.638 88.4257C199.569 85.2902 200.331 82.1923 201.845 79.4477C203.359 76.7032 205.572 74.41 208.258 72.802C210.945 71.1939 214.008 70.3284 217.137 70.2936C220.265 70.2589 223.347 71.0561 226.068 72.6041C228.79 74.1521 231.053 76.3955 232.627 79.1058C234.202 81.816 235.031 84.8962 235.032 88.0325V88.0325Z" fill="#E6E6E6"/>
<path d="M217.424 87.1713C220.081 87.1713 222.235 85.0122 222.235 82.3488C222.235 79.6854 220.081 77.5263 217.424 77.5263C214.767 77.5263 212.613 79.6854 212.613 82.3488C212.613 85.0122 214.767 87.1713 217.424 87.1713Z" fill="white"/>
<path d="M225.639 97.1359C220.26 99.0282 214.396 99.0055 209.032 97.0714L209.029 97.069L212.613 89.9771H222.235L225.639 97.1359Z" fill="white"/>
<path d="M164.158 132.067C155.772 132.067 148.95 124.802 148.95 115.873C148.95 106.944 155.772 99.6798 164.158 99.6798C172.543 99.6798 179.365 106.944 179.365 115.873C179.365 124.802 172.543 132.067 164.158 132.067ZM164.158 103.771C158.023 103.771 153.032 109.2 153.032 115.873C153.032 122.546 158.023 127.975 164.158 127.975C170.292 127.975 175.283 122.546 175.283 115.873C175.283 109.2 170.292 103.771 164.158 103.771Z" fill="#6C63FF"/>
<path d="M178.559 160.288H149.756C147.216 160.285 144.781 159.272 142.985 157.472C141.189 155.672 140.179 153.231 140.176 150.685V122.365C140.178 120.622 140.87 118.951 142.099 117.719C143.329 116.486 144.996 115.793 146.735 115.791H181.58C183.319 115.793 184.986 116.486 186.216 117.719C187.445 118.951 188.137 120.622 188.139 122.365V150.685C188.136 153.231 187.126 155.672 185.33 157.472C183.534 159.272 181.099 160.285 178.559 160.288Z" fill="#3F3D56"/>
<path d="M169.77 131.902C169.771 130.902 169.506 129.919 169.002 129.056C168.498 128.193 167.774 127.48 166.904 126.991C166.033 126.501 165.049 126.253 164.051 126.272C163.054 126.291 162.079 126.576 161.228 127.098C160.377 127.62 159.68 128.36 159.209 129.242C158.739 130.124 158.511 131.115 158.549 132.115C158.588 133.114 158.891 134.085 159.429 134.928C159.966 135.77 160.718 136.454 161.606 136.909V145.711H166.709V136.909C167.63 136.438 168.403 135.721 168.944 134.838C169.484 133.954 169.77 132.938 169.77 131.902Z" fill="white"/>
<path d="M178.356 234H0.4669C0.343071 234 0.224312 233.951 0.136752 233.863C0.0491908 233.775 0 233.656 0 233.532C0 233.408 0.0491908 233.289 0.136752 233.201C0.224312 233.113 0.343071 233.064 0.4669 233.064H178.356C178.48 233.064 178.599 233.113 178.686 233.201C178.774 233.289 178.823 233.408 178.823 233.532C178.823 233.656 178.774 233.775 178.686 233.863C178.599 233.951 178.48 234 178.356 234Z" fill="#3F3D56"/>
</g>
<defs>
<clipPath id="clip0_2396_67882">
<rect width="377" height="234" fill="white"/>
</clipPath>
</defs>
</svg>
