<svg width="324" height="274" viewBox="0 0 324 274" fill="none" xmlns="http://www.w3.org/2000/svg">
<g clip-path="url(#clip0_2314_67885)">
<path d="M312.196 114.71C296.043 135.368 265.564 140.099 240.344 132.904C232.093 130.492 224.132 127.178 216.606 123.021C212.235 120.647 207.969 118.043 203.789 115.268C202.761 114.588 201.733 113.898 200.715 113.194C200.021 112.72 199.33 112.24 198.641 111.754C190.01 105.681 181.718 99.0196 173.564 92.3961C153.211 75.8618 132.3 58.8186 107.294 50.9297C102.142 49.3052 95.4769 48.5453 92.2909 52.9098C89.5268 56.6991 91.2139 62.0641 93.5528 66.1289C102.229 81.185 117.977 90.6915 133.74 98.0017C149.502 105.312 166.199 111.235 179.901 121.923C193.604 132.611 204.065 149.598 201.262 166.746C198.847 181.524 186.782 193.529 172.756 198.762C158.729 203.991 143.085 203.262 128.504 199.867C113.923 196.468 100.082 190.538 86.0096 185.428C77.5254 182.343 66.4338 180.209 60.8042 187.268C56.0498 193.233 58.7825 202.642 64.5723 207.606C70.3621 212.57 78.1982 214.233 85.675 215.725C108.89 220.361 132.105 224.997 155.32 229.631C162.441 231.05 169.73 232.535 175.935 236.313C182.139 240.089 187.145 246.684 186.967 253.946C186.789 261.103 181.55 267.426 175.13 270.595C168.712 273.76 161.302 274.248 154.152 273.907C127.361 272.624 50.5527 230.056 32.1306 224.614C20.293 221.121 7.35048 215.99 2.3588 204.702C-3.85631 190.65 6.37097 173.649 20.3313 167.231C34.2882 160.809 50.469 162.232 65.6808 164.393C80.8926 166.554 96.6062 169.305 111.414 165.198C126.221 161.092 139.788 147.705 138.327 132.409C137.055 119.099 125.067 109.07 112.452 104.65C102.577 101.188 92.0714 100.247 81.6979 98.6884C78.8186 98.2596 75.9498 97.7785 73.109 97.1859C65.8335 95.6615 58.7365 93.3833 51.9331 90.3882C44.7937 87.2518 38.0112 83.3589 31.7018 78.7762C26.6696 75.1264 21.9668 71.0425 17.6474 66.5716C16.9886 65.8883 16.3367 65.19 15.6918 64.4765C15.0784 63.7932 14.4718 63.096 13.8793 62.3849C6.1688 53.1713 0.472977 41.8242 2.18113 30.1321C3.88553 18.4713 12.973 8.76272 23.7927 4.0984C30.0461 1.4037 36.791 0.197532 43.6196 0.0232302C48.6126 -0.0765674 53.6042 0.282845 58.5315 1.09693C81.3318 4.74332 102.225 15.8219 121.958 27.8174C141.687 39.8128 160.915 52.9796 182.362 61.5308C203.81 70.0855 228.224 73.7075 249.982 65.972C271.74 58.24 289.615 37.1425 288.552 14.0754C302.983 26.5031 315.246 42.1241 320.677 60.3769C326.108 78.6297 323.925 99.7063 312.196 114.71Z" fill="#3F3D56"/>
<path d="M208.219 90.8709C209.62 90.8709 210.756 89.7351 210.756 88.3339C210.756 86.9327 209.62 85.7969 208.219 85.7969C206.818 85.7969 205.682 86.9327 205.682 88.3339C205.682 89.7351 206.818 90.8709 208.219 90.8709Z" fill="#6C63FF"/>
<path d="M297.803 58.7904C299.969 58.7904 301.725 57.0343 301.725 54.868C301.725 52.7016 299.969 50.9455 297.803 50.9455C295.636 50.9455 293.88 52.7016 293.88 54.868C293.88 57.0343 295.636 58.7904 297.803 58.7904Z" fill="#FF6584"/>
<path d="M40.5549 179.723C41.3553 179.723 42.0041 179.074 42.0041 178.274C42.0041 177.473 41.3553 176.824 40.5549 176.824C39.7545 176.824 39.1057 177.473 39.1057 178.274C39.1057 179.074 39.7545 179.723 40.5549 179.723Z" fill="#FF6584"/>
<path d="M82.151 94.9583C82.1519 96.2154 81.9997 97.4679 81.6979 98.6883C78.8186 98.2595 75.9498 97.7784 73.109 97.1858C65.8335 95.6614 58.7366 93.3832 51.9331 90.3881C53.0272 86.8553 55.3516 83.832 58.4844 81.867C61.6171 79.9019 65.3506 79.1254 69.007 79.6784C72.6634 80.2314 76.0004 82.0773 78.4121 84.8809C80.8238 87.6845 82.1503 91.26 82.151 94.9583Z" fill="#FF6584"/>
<path d="M272.705 81.7982C273.524 81.7982 274.187 81.1346 274.187 80.316C274.187 79.4974 273.524 78.8337 272.705 78.8337C271.887 78.8337 271.223 79.4974 271.223 80.316C271.223 81.1346 271.887 81.7982 272.705 81.7982Z" fill="#F0F0F0"/>
<path d="M137.11 244.945C137.928 244.945 138.592 244.281 138.592 243.462C138.592 242.644 137.928 241.98 137.11 241.98C136.291 241.98 135.628 242.644 135.628 243.462C135.628 244.281 136.291 244.945 137.11 244.945Z" fill="#F0F0F0"/>
<path d="M158.373 265.512C159.191 265.512 159.855 264.849 159.855 264.03C159.855 263.211 159.191 262.548 158.373 262.548C157.554 262.548 156.891 263.211 156.891 264.03C156.891 264.849 157.554 265.512 158.373 265.512Z" fill="#F0F0F0"/>
<path d="M26.9605 206.947C27.7791 206.947 28.4426 206.283 28.4426 205.465C28.4426 204.646 27.7791 203.982 26.9605 203.982C26.1419 203.982 25.4784 204.646 25.4784 205.465C25.4784 206.283 26.1419 206.947 26.9605 206.947Z" fill="#F0F0F0"/>
<path d="M99.8125 179.407C100.631 179.407 101.295 178.744 101.295 177.925C101.295 177.106 100.631 176.443 99.8125 176.443C98.9939 176.443 98.3304 177.106 98.3304 177.925C98.3304 178.744 98.9939 179.407 99.8125 179.407Z" fill="#F0F0F0"/>
<path d="M92.4924 32.2966C93.311 32.2966 93.9746 31.633 93.9746 30.8143C93.9746 29.9957 93.311 29.3321 92.4924 29.3321C91.6739 29.3321 91.0103 29.9957 91.0103 30.8143C91.0103 31.633 91.6739 32.2966 92.4924 32.2966Z" fill="#F0F0F0"/>
<path d="M182.076 148.381C182.895 148.381 183.558 147.718 183.558 146.899C183.558 146.081 182.895 145.417 182.076 145.417C181.257 145.417 180.594 146.081 180.594 146.899C180.594 147.718 181.257 148.381 182.076 148.381Z" fill="#F0F0F0"/>
<path d="M193.23 174.178C194.049 174.178 194.712 173.514 194.712 172.696C194.712 171.877 194.049 171.214 193.23 171.214C192.412 171.214 191.748 171.877 191.748 172.696C191.748 173.514 192.412 174.178 193.23 174.178Z" fill="#F0F0F0"/>
<path d="M59.633 35.5458C59.6439 43.0298 57.8757 50.4093 54.4742 57.0755C54.0245 57.954 53.5481 58.8174 53.045 59.6656C48.0638 68.0783 40.6112 74.7513 31.7018 78.7761C26.6695 75.1263 21.9667 71.0424 17.6474 66.5715C16.9885 65.8882 16.3367 65.1899 15.6918 64.4764C15.0784 63.7931 14.4718 63.0959 13.8793 62.3848C6.16878 53.1712 0.472964 41.8241 2.18111 30.132C3.88552 18.4712 12.973 8.7626 23.7927 4.09828C30.0461 1.40358 36.791 0.197434 43.6195 0.0231323C48.9588 4.73871 53.1679 10.596 55.9347 17.1605C56.2833 17.9867 56.6039 18.8233 56.9072 19.6704C58.7163 24.7676 59.6382 30.1371 59.633 35.5458Z" fill="#6C63FF"/>
<path d="M81.2446 37.986C81.2446 45.2474 74.1547 51.9824 61.2784 56.957C58.7024 57.954 55.9451 58.8568 53.045 59.6656C42.1904 62.6915 29.2722 64.3683 15.6918 64.4763C15.0784 63.7931 14.4718 63.0959 13.8793 62.3847C14.0257 62.3882 14.172 62.3882 14.3184 62.3882C29.0666 62.3882 43.0584 60.5197 54.4742 57.0755C56.583 56.4375 58.6048 55.7473 60.5254 55.0048C72.363 50.4346 79.1532 44.2294 79.1532 37.986C79.1532 31.7425 72.363 25.5408 60.5254 20.9671C59.3542 20.514 58.1482 20.0817 56.9072 19.6703C56.604 18.8232 56.2833 17.9866 55.9347 17.1604C57.7891 17.7391 59.5703 18.3573 61.2784 19.015C74.1547 23.9895 81.2446 30.728 81.2446 37.986Z" fill="#E4E4E4"/>
<path d="M16.5033 12.0776C17.3218 12.0776 17.9854 11.414 17.9854 10.5953C17.9854 9.77672 17.3218 9.1131 16.5033 9.1131C15.6847 9.1131 15.0212 9.77672 15.0212 10.5953C15.0212 11.414 15.6847 12.0776 16.5033 12.0776Z" fill="#F0F0F0"/>
<path d="M47.5264 21.4899C48.3449 21.4899 49.0085 20.8263 49.0085 20.0076C49.0085 19.189 48.3449 18.5254 47.5264 18.5254C46.7078 18.5254 46.0443 19.189 46.0443 20.0076C46.0443 20.8263 46.7078 21.4899 47.5264 21.4899Z" fill="#F0F0F0"/>
<path d="M31.492 49.4118C39.452 49.4118 45.905 42.9583 45.905 34.9976C45.905 27.0368 39.452 20.5834 31.492 20.5834C23.5319 20.5834 17.079 27.0368 17.079 34.9976C17.079 42.9583 23.5319 49.4118 31.492 49.4118Z" fill="#F0F0F0"/>
<path opacity="0.3" d="M297.664 111.287C294.429 112.242 287.297 112.946 279.454 113.378C271.615 113.807 263.016 113.996 254.524 114.177C239.661 114.498 224.799 114.819 209.938 115.142C207.895 115.188 205.846 115.23 203.789 115.268C202.761 114.588 201.733 113.898 200.715 113.194C202.538 113.204 204.361 113.194 206.17 113.159C213.898 113.005 220.441 112.402 227.893 112.117C239.361 111.674 251.743 112.022 263.695 112.2C275.648 112.381 289.267 112.315 297.664 111.287Z" fill="#F0F0F0"/>
<path opacity="0.3" d="M69.5468 221.177L22.1683 181.705L68.1957 222.758C68.2849 222.909 68.4085 223.035 68.5564 223.128C68.7043 223.221 68.8722 223.277 69.0462 223.292C69.2201 223.307 69.3951 223.28 69.5567 223.214C69.7182 223.148 69.8617 223.044 69.9751 222.911C70.0886 222.779 70.1687 222.621 70.209 222.451C70.2492 222.281 70.2483 222.104 70.2064 221.934C70.1646 221.765 70.0829 221.608 69.9682 221.476C69.8535 221.344 69.709 221.242 69.5468 221.177H69.5468Z" fill="#F0F0F0"/>
<path d="M33.5834 71.6887C34.402 71.6887 35.0655 71.0251 35.0655 70.2065C35.0655 69.3879 34.402 68.7242 33.5834 68.7242C32.7649 68.7242 32.1013 69.3879 32.1013 70.2065C32.1013 71.0251 32.7649 71.6887 33.5834 71.6887Z" fill="#F0F0F0"/>
<path d="M158.061 241.957L164.192 241.956L167.108 218.308L158.06 218.308L158.061 241.957Z" fill="#FFB6B6"/>
<path d="M156.498 239.955L158.223 239.955L164.96 237.215L168.571 239.954H168.571C170.612 239.954 172.569 240.765 174.011 242.208C175.454 243.651 176.265 245.608 176.265 247.649V247.899L156.498 247.899L156.498 239.955Z" fill="#2F2E41"/>
<path d="M112.151 241.957L106.021 241.956L103.104 218.308L112.152 218.308L112.151 241.957Z" fill="#FFB6B6"/>
<path d="M113.715 247.899L93.9475 247.899V247.649C93.9476 245.608 94.7583 243.651 96.2011 242.208C97.644 240.765 99.6009 239.954 101.641 239.954H101.642L105.253 237.215L111.989 239.955L113.715 239.955L113.715 247.899Z" fill="#2F2E41"/>
<path d="M134.117 60.7225L127.91 65.4496L111.421 69.8168C111.421 69.8168 117.329 111.287 114.54 114.076C111.752 116.864 114.267 116.939 113.706 120.562C113.146 124.185 110.913 133.75 110.913 133.75H160.128C160.128 133.75 160.524 127.806 158.098 126.518C155.672 125.231 160.335 119.222 158.352 118.218C156.369 117.213 159.158 108.498 159.158 108.498L165.201 79.965L149.127 67.3875L146.682 61.497L134.117 60.7225Z" fill="#6C63FF"/>
<path d="M141.863 97.7797C143.049 97.7797 144.01 96.818 144.01 95.6318C144.01 94.4455 143.049 93.4839 141.863 93.4839C140.676 93.4839 139.715 94.4455 139.715 95.6318C139.715 96.818 140.676 97.7797 141.863 97.7797Z" fill="#F2F2F2"/>
<path d="M110.913 133.75L108.884 186.013C108.884 186.013 100.121 224.614 101.643 225.629C103.165 226.643 103.81 232.695 103.81 232.695L112.435 233.709C112.435 233.709 112.435 229.65 114.465 228.128C116.494 226.606 135.267 155.061 135.267 155.061L153.581 224.234C153.581 224.234 154.039 228.128 155.561 228.128C157.083 228.128 157.591 233.709 157.591 233.709H166.216V228.128C166.216 228.128 170.092 226.899 168.569 222.84C167.047 218.781 160.128 133.75 160.128 133.75H110.913Z" fill="#2F2E41"/>
<path d="M140.563 57.6081C146.307 57.6081 150.964 52.951 150.964 47.2062C150.964 41.4614 146.307 36.8044 140.563 36.8044C134.819 36.8044 130.162 41.4614 130.162 47.2062C130.162 52.951 134.819 57.6081 140.563 57.6081Z" fill="#FFB6B6"/>
<path opacity="0.1" d="M158.352 93.9186L160.381 95.4409L161.396 88.3371L158.352 93.9186Z" fill="black"/>
<path d="M112.393 69.7765C112.393 69.7765 109.856 69.2691 108.334 73.8357C106.812 78.4024 101.231 95.6543 101.231 98.6987C101.231 101.743 135.988 115.176 135.988 115.176L132.371 102.488L116.452 94.132L112.393 69.7765Z" fill="#6C63FF"/>
<path d="M137.6 113.295C140.873 113.295 143.526 110.642 143.526 107.369C143.526 104.096 140.873 101.442 137.6 101.442C134.327 101.442 131.674 104.096 131.674 107.369C131.674 110.642 134.327 113.295 137.6 113.295Z" fill="#FFB6B6"/>
<path opacity="0.1" d="M115.988 87.847L116.452 94.132L131.173 101.859L118.08 93.076L115.988 87.847Z" fill="black"/>
<path d="M151.377 88.743H151.186V83.511C151.186 83.1134 151.107 82.7196 150.955 82.3522C150.803 81.9848 150.58 81.651 150.299 81.3698C150.018 81.0886 149.684 80.8656 149.316 80.7134C148.949 80.5612 148.555 80.4829 148.158 80.4829H137.074C136.676 80.4829 136.283 80.5612 135.915 80.7134C135.548 80.8656 135.214 81.0886 134.933 81.3698C134.652 81.651 134.429 81.9848 134.277 82.3522C134.125 82.7196 134.046 83.1134 134.046 83.511V112.214C134.046 112.611 134.125 113.005 134.277 113.373C134.429 113.74 134.652 114.074 134.933 114.355C135.214 114.636 135.548 114.859 135.915 115.011C136.283 115.164 136.676 115.242 137.074 115.242H148.158C148.555 115.242 148.949 115.164 149.316 115.011C149.684 114.859 150.018 114.636 150.299 114.355C150.58 114.074 150.803 113.74 150.955 113.373C151.107 113.005 151.186 112.611 151.186 112.214V92.4671H151.377V88.743Z" fill="#F0F0F0"/>
<path d="M165.201 79.965C165.201 79.965 166.723 80.9798 167.738 85.5464C168.753 90.1131 175.349 107.365 172.812 111.424C170.275 115.483 169.526 119.816 160.901 113.727L148.966 102.798L157.591 94.6798L161.142 97.2168L165.201 79.965Z" fill="#6C63FF"/>
<path d="M142.751 93.2758C144.152 93.2758 145.288 92.1399 145.288 90.7388C145.288 89.3376 144.152 88.2017 142.751 88.2017C141.35 88.2017 140.214 89.3376 140.214 90.7388C140.214 92.1399 141.35 93.2758 142.751 93.2758Z" fill="#6C63FF"/>
<path d="M150.095 102.223C153.368 102.223 156.021 99.5698 156.021 96.2969C156.021 93.0239 153.368 90.3706 150.095 90.3706C146.822 90.3706 144.169 93.0239 144.169 96.2969C144.169 99.5698 146.822 102.223 150.095 102.223Z" fill="#FFB6B6"/>
<path opacity="0.1" d="M115.709 106.816L132.72 114.341L115.236 110.923L115.709 106.816Z" fill="black"/>
<path d="M130.07 49.2792L128.642 43.8438C128.269 42.4256 127.893 40.9787 127.977 39.5147C128.061 38.0508 128.682 36.5401 129.915 35.747C131.148 34.9539 133.031 35.1412 133.824 36.3742C133.975 34.4054 135.766 32.891 137.666 32.3545C139.566 31.818 141.584 32.0302 143.556 32.1207C145.528 32.2112 147.61 32.148 149.313 31.1476C149.442 31.5369 149.434 31.959 149.288 32.3427C149.143 32.7263 148.87 33.0481 148.515 33.2537C148.938 33.3691 149.389 33.3195 149.777 33.1149C150.165 32.9102 150.461 32.5658 150.604 32.1514C150.617 33.2916 150.196 34.394 149.426 35.2349C150.16 34.8704 151.004 34.7923 151.793 35.0157C152.582 35.2392 153.26 35.7482 153.695 36.4437C154.563 37.9499 154.076 39.8415 153.568 41.5044L150.96 50.0391C150.564 48.7416 150.489 47.3719 150.278 46.0321C150.066 44.6924 149.69 43.3242 148.805 42.2957C147.921 41.2673 146.419 40.6718 145.162 41.1824C144.457 41.4689 143.92 42.0501 143.283 42.4672C141.977 43.3231 140.316 43.4459 138.765 43.2717C137.213 43.0975 135.701 42.6557 134.15 42.4792C133.178 42.3687 132.094 42.3979 131.361 43.045C130.857 43.5688 130.524 44.2335 130.407 44.9509C130.061 46.3808 129.925 47.8535 130.003 49.3226" fill="#2F2E41"/>
</g>
<defs>
<clipPath id="clip0_2314_67885">
<rect width="323" height="274" fill="white" transform="translate(0.5)"/>
</clipPath>
</defs>
</svg>
