<svg width="560" height="190" viewBox="0 0 560 190" fill="none" xmlns="http://www.w3.org/2000/svg">
<rect width="560" height="190" rx="16" fill="white"/>
<g clip-path="url(#clip0_2276_62296)">
<path d="M413.822 117.482C414.245 118.19 414.817 118.796 415.498 119.258C416.18 119.721 416.954 120.027 417.766 120.157C418.578 120.286 419.409 120.236 420.2 120.008C420.991 119.781 421.722 119.382 422.342 118.84L439.686 128.82L439.04 118.417L422.669 110.534C421.693 109.549 420.39 108.957 419.008 108.87C417.626 108.784 416.26 109.209 415.17 110.066C414.079 110.922 413.34 112.15 413.091 113.517C412.843 114.884 413.103 116.294 413.822 117.482Z" fill="#FFB8B8"/>
<path d="M464.034 157.461C458.889 164.685 459.073 176.772 460.508 190H484.833L485.89 187.524L487.3 190H510.215C510.215 190 508.452 156.4 505.279 155.339C502.106 154.278 464.034 157.461 464.034 157.461Z" fill="#2F2E41"/>
<path d="M484.833 81.9822C491.647 81.9822 497.171 76.44 497.171 69.6032C497.171 62.7665 491.647 57.2243 484.833 57.2243C478.018 57.2243 472.494 62.7665 472.494 69.6032C472.494 76.44 478.018 81.9822 484.833 81.9822Z" fill="#FFB8B8"/>
<path d="M493.75 85.1939L496.163 89.8337L512.852 97.2977L508.465 139.89L506.619 144.301L507.616 148.131L505.211 150.958C507.626 153.15 507.932 155.444 506.619 157.817L498.934 159.583C498.934 159.583 456.202 163.395 459.803 156.754C463.738 149.497 464.74 128.065 456.054 116.612C448.679 106.889 454.341 94.2718 454.341 94.2718L471.834 89.0268L478.268 85.1939L493.75 85.1939Z" fill="#3F3D56"/>
<path d="M490.31 51.4701C490.368 51.347 490.462 51.2441 490.578 51.1746C490.695 51.1051 490.83 51.0723 490.965 51.0802C485.317 50.7412 479.367 51.4017 474.641 54.5248C473.496 55.2814 472.417 56.1839 471.171 56.7327C471.112 56.7592 471.061 56.8006 471.023 56.8527C470.985 56.9048 470.96 56.9659 470.953 57.0301C470.945 57.0943 470.954 57.1595 470.979 57.2192C471.004 57.2788 471.043 57.3311 471.094 57.3708L471.231 57.4785C471.285 57.5209 471.327 57.5775 471.351 57.6419C471.375 57.7063 471.381 57.7761 471.369 57.8438C471.356 57.9114 471.325 57.9743 471.279 58.0257C471.234 58.077 471.175 58.1147 471.109 58.1348C471.041 58.1557 470.98 58.1958 470.933 58.2504C470.887 58.3049 470.857 58.3716 470.847 58.4427C470.837 58.5138 470.848 58.5862 470.877 58.6514C470.907 58.7167 470.955 58.7721 471.015 58.811L472.063 59.491C472.116 59.5246 472.16 59.571 472.19 59.626C472.22 59.6809 472.236 59.7426 472.237 59.8053C472.237 59.8681 472.222 59.9299 472.192 59.9852C472.162 60.0404 472.119 60.0873 472.067 60.1215C471.978 60.1766 471.885 60.224 471.788 60.2634C471.728 60.2861 471.674 60.3239 471.633 60.3733C471.592 60.4227 471.564 60.482 471.552 60.5454C471.54 60.6088 471.544 60.6742 471.565 60.7353C471.586 60.7964 471.622 60.8512 471.669 60.8943C472.123 61.2999 472.472 61.8108 472.684 62.3824C473.033 63.2942 473.096 64.2872 473.155 65.2623C473.517 63.8553 475.047 63.0271 476.493 62.943C477.938 62.8588 479.348 63.3374 480.755 63.6814C483.819 64.4285 487.002 64.5513 490.115 64.0426C489.058 66.1706 489.949 68.7089 490.846 70.9095L493.75 69.6607C497.739 67.4019 494.961 76.9568 493.47 78.2685C496.514 79.3275 504.483 67.574 501.919 63.1157C500.586 60.7965 501.532 57.8053 498.911 55.6058C497.626 54.2487 495.06 54.8519 493.75 53.724C493.235 53.28 494.021 52.0924 493.312 51.8336C493.077 51.7476 490.349 51.3834 490.31 51.4701Z" fill="#2F2E41"/>
<path d="M469.411 90.225C467.147 100.31 461.34 123.856 455.449 128.78C455.075 129.134 454.627 129.399 454.138 129.556C433.429 134.618 426.794 121.707 426.794 121.707C426.794 121.707 432.344 118.994 432.484 113.69L443.676 117.174L453.432 95.1473L454.868 93.8037L454.876 93.7957L469.411 90.225Z" fill="#3F3D56"/>
<path d="M513.564 183.351C514.157 182.779 514.618 182.083 514.914 181.313C515.21 180.543 515.334 179.718 515.278 178.895C515.222 178.071 514.986 177.27 514.588 176.548C514.19 175.826 513.639 175.201 512.973 174.715L518.779 155.52L508.818 158.485L504.832 176.258C504.094 177.434 503.811 178.84 504.037 180.211C504.263 181.581 504.982 182.821 506.058 183.696C507.135 184.57 508.493 185.018 509.877 184.954C511.26 184.89 512.572 184.32 513.564 183.351V183.351Z" fill="#FFB8B8"/>
<path d="M508.251 96.2239L512.852 97.2977C512.852 97.2977 531.87 134.422 527.287 141.495C522.704 148.569 517.09 171.988 517.09 171.988C517.09 171.988 508.786 170.332 505.614 166.088L511.424 138.312L505.431 114.969L508.251 96.2239Z" fill="#3F3D56"/>
<path d="M420.958 151.352L421.123 91.5614C421.128 90.3512 421.611 89.1923 422.466 88.339C423.322 87.4857 424.479 87.0075 425.686 87.0095L470.693 87.1347C471.899 87.1394 473.054 87.624 473.905 88.4821C474.755 89.3402 475.232 90.5017 475.23 91.7119L475.065 151.503C475.06 152.713 474.577 153.872 473.722 154.725C472.866 155.578 471.709 156.056 470.503 156.054L425.495 155.929C424.289 155.924 423.134 155.44 422.283 154.582C421.433 153.724 420.956 152.562 420.958 151.352V151.352Z" fill="#E6E6E6"/>
<path d="M424.461 133.302L424.567 94.8635C424.571 93.7301 425.023 92.6448 425.824 91.8456C426.625 91.0464 427.71 90.5986 428.839 90.6005L467.519 90.7081C468.649 90.7125 469.731 91.1663 470.527 91.9699C471.324 92.7735 471.77 93.8614 471.769 94.9948L471.622 148.2C471.617 149.334 471.165 150.419 470.364 151.218C469.563 152.017 468.478 152.465 467.349 152.463L443.387 152.397C438.355 152.377 433.537 150.356 429.989 146.776C426.44 143.196 424.452 138.351 424.461 133.302V133.302Z" fill="white"/>
<path d="M463.087 107.485H432.927C432.447 107.485 431.987 107.294 431.647 106.953C431.308 106.613 431.117 106.151 431.117 105.67C431.117 105.188 431.308 104.726 431.647 104.386C431.987 104.045 432.447 103.854 432.927 103.854H463.087C463.567 103.854 464.027 104.045 464.367 104.386C464.706 104.726 464.897 105.188 464.897 105.67C464.897 106.151 464.706 106.613 464.367 106.953C464.027 107.294 463.567 107.485 463.087 107.485V107.485Z" fill="#6C63FF"/>
<path d="M439.562 99.1133H432.927C432.447 99.1133 431.987 98.922 431.647 98.5816C431.308 98.2411 431.117 97.7793 431.117 97.2978C431.117 96.8162 431.308 96.3544 431.647 96.0139C431.987 95.6735 432.447 95.4822 432.927 95.4822H439.562C440.042 95.4822 440.502 95.6735 440.842 96.0139C441.181 96.3544 441.372 96.8162 441.372 97.2978C441.372 97.7793 441.181 98.2411 440.842 98.5816C440.502 98.922 440.042 99.1133 439.562 99.1133Z" fill="#6C63FF"/>
<path d="M463.087 115.857H432.927C432.447 115.857 431.987 115.666 431.647 115.325C431.308 114.985 431.117 114.523 431.117 114.041C431.117 113.56 431.308 113.098 431.647 112.758C431.987 112.417 432.447 112.226 432.927 112.226H463.087C463.567 112.226 464.027 112.417 464.367 112.758C464.706 113.098 464.897 113.56 464.897 114.041C464.897 114.523 464.706 114.985 464.367 115.325C464.027 115.666 463.567 115.857 463.087 115.857Z" fill="#6C63FF"/>
<path d="M463.087 124.229H432.927C432.447 124.229 431.987 124.037 431.647 123.697C431.308 123.356 431.117 122.895 431.117 122.413C431.117 121.932 431.308 121.47 431.647 121.129C431.987 120.789 432.447 120.598 432.927 120.598H463.087C463.567 120.598 464.027 120.789 464.367 121.129C464.706 121.47 464.897 121.932 464.897 122.413C464.897 122.895 464.706 123.356 464.367 123.697C464.027 124.037 463.567 124.229 463.087 124.229V124.229Z" fill="#6C63FF"/>
<path d="M460.647 146.288C464.624 146.288 467.847 143.054 467.847 139.064C467.847 135.074 464.624 131.84 460.647 131.84C456.67 131.84 453.446 135.074 453.446 139.064C453.446 143.054 456.67 146.288 460.647 146.288Z" fill="#6C63FF"/>
<path d="M459.665 142.824C459.54 142.824 459.418 142.795 459.306 142.739C459.195 142.683 459.098 142.602 459.024 142.502L457.059 139.874C456.996 139.79 456.95 139.694 456.924 139.592C456.898 139.489 456.892 139.383 456.907 139.278C456.921 139.174 456.957 139.073 457.01 138.982C457.064 138.891 457.135 138.812 457.219 138.749C457.303 138.685 457.399 138.639 457.501 138.613C457.603 138.587 457.709 138.581 457.813 138.596C457.918 138.611 458.018 138.647 458.108 138.7C458.199 138.754 458.278 138.826 458.341 138.91L459.626 140.629L462.927 135.662C462.985 135.574 463.06 135.498 463.148 135.439C463.235 135.38 463.333 135.339 463.437 135.318C463.54 135.297 463.646 135.297 463.75 135.317C463.853 135.337 463.951 135.378 464.039 135.437C464.127 135.496 464.202 135.571 464.261 135.659C464.319 135.747 464.36 135.845 464.38 135.949C464.401 136.053 464.401 136.16 464.38 136.263C464.36 136.367 464.319 136.466 464.26 136.553L460.331 142.466C460.26 142.573 460.164 142.661 460.052 142.723C459.94 142.786 459.815 142.82 459.687 142.824C459.679 142.824 459.672 142.824 459.665 142.824Z" fill="white"/>
<path d="M445.293 73.0901C447.18 73.0901 448.711 71.5547 448.711 69.6607C448.711 67.7667 447.18 66.2313 445.293 66.2313C443.405 66.2313 441.874 67.7667 441.874 69.6607C441.874 71.5547 443.405 73.0901 445.293 73.0901Z" fill="#F2F2F2"/>
<path d="M432.826 171.736C434.714 171.736 436.244 170.201 436.244 168.307C436.244 166.413 434.714 164.877 432.826 164.877C430.938 164.877 429.408 166.413 429.408 168.307C429.408 170.201 430.938 171.736 432.826 171.736Z" fill="#F2F2F2"/>
<path d="M511.445 86.4043C513.332 86.4043 514.863 84.8689 514.863 82.9749C514.863 81.0809 513.332 79.5455 511.445 79.5455C509.557 79.5455 508.026 81.0809 508.026 82.9749C508.026 84.8689 509.557 86.4043 511.445 86.4043Z" fill="#F2F2F2"/>
</g>
<defs>
<clipPath id="clip0_2276_62296">
<rect width="115" height="139" fill="white" transform="translate(413 51)"/>
</clipPath>
</defs>
</svg>
