<svg width="315" height="232" viewBox="0 0 315 232" fill="none" xmlns="http://www.w3.org/2000/svg">
<g clip-path="url(#clip0_2314_67834)">
<path d="M226.905 80.1815H118.37C116.644 80.1795 114.99 79.493 113.77 78.2726C112.55 77.0522 111.863 75.3976 111.862 73.6717V9.63225C111.863 8.34145 112.376 7.10393 113.289 6.19118C114.201 5.27843 115.438 4.76499 116.729 4.7635H228.468C229.779 4.76501 231.036 5.28664 231.963 6.21396C232.89 7.14128 233.412 8.39857 233.413 9.70999V73.6717C233.411 75.3976 232.725 77.0522 231.505 78.2726C230.284 79.493 228.63 80.1795 226.905 80.1815Z" fill="white"/>
<path d="M226.905 80.1815H118.37C116.644 80.1795 114.99 79.493 113.77 78.2726C112.55 77.0522 111.863 75.3976 111.862 73.6717V9.63225C111.863 8.34145 112.376 7.10393 113.289 6.19118C114.201 5.27843 115.438 4.76499 116.729 4.7635H228.468C229.779 4.76501 231.036 5.28664 231.963 6.21396C232.89 7.14128 233.412 8.39857 233.413 9.70999V73.6717C233.411 75.3976 232.725 77.0522 231.505 78.2726C230.284 79.493 228.63 80.1795 226.905 80.1815ZM116.729 5.50748C115.636 5.50873 114.587 5.9437 113.814 6.71698C113.041 7.49026 112.607 8.53869 112.605 9.63225V73.6717C112.607 75.2004 113.215 76.6659 114.296 77.7468C115.376 78.8278 116.841 79.4358 118.37 79.4375H226.905C228.433 79.4358 229.898 78.8278 230.979 77.7468C232.06 76.6659 232.667 75.2004 232.669 73.6717V9.70999C232.668 8.59581 232.225 7.52762 231.437 6.73977C230.65 5.95192 229.582 5.50875 228.468 5.50748H116.729Z" fill="#3F3D56"/>
<path d="M124.32 73.6718H220.954C222.532 73.6718 224.046 73.0447 225.162 71.9285C226.278 70.8123 226.905 69.2984 226.905 67.7199V21.0174C226.905 19.4389 226.278 17.925 225.162 16.8088C224.046 15.6926 222.532 15.0656 220.954 15.0656H124.32C122.742 15.0656 121.229 15.6926 120.113 16.8088C118.997 17.925 118.37 19.4389 118.37 21.0174V67.7199C118.37 69.2984 118.997 70.8123 120.113 71.9285C121.229 73.0447 122.742 73.6718 124.32 73.6718Z" fill="#F2F2F2"/>
<path d="M233.576 9.28122H111.592V6.15636C111.604 4.51472 112.266 2.94462 113.433 1.79049C114.6 0.636367 116.177 -0.00754688 117.819 4.78214e-06H227.349C228.991 -0.00755475 230.568 0.636354 231.735 1.79048C232.902 2.94461 233.564 4.51471 233.576 6.15636V9.28122Z" fill="#6C63FF"/>
<path d="M123.34 6.24326C124.22 6.24326 124.933 5.52988 124.933 4.64988C124.933 3.76987 124.22 3.05649 123.34 3.05649C122.46 3.05649 121.747 3.76987 121.747 4.64988C121.747 5.52988 122.46 6.24326 123.34 6.24326Z" fill="white"/>
<path d="M129.386 6.24326C130.266 6.24326 130.979 5.52988 130.979 4.64988C130.979 3.76987 130.266 3.05649 129.386 3.05649C128.507 3.05649 127.793 3.76987 127.793 4.64988C127.793 5.52988 128.507 6.24326 129.386 6.24326Z" fill="white"/>
<path d="M135.433 6.24326C136.313 6.24326 137.026 5.52988 137.026 4.64988C137.026 3.76987 136.313 3.05649 135.433 3.05649C134.553 3.05649 133.84 3.76987 133.84 4.64988C133.84 5.52988 134.553 6.24326 135.433 6.24326Z" fill="white"/>
<path d="M141.521 56.6443C139.093 56.6443 136.72 55.9244 134.702 54.5755C132.684 53.2266 131.111 51.3094 130.182 49.0664C129.253 46.8233 129.01 44.3551 129.484 41.9738C129.957 39.5926 131.126 37.4052 132.842 35.6885C134.559 33.9717 136.746 32.8025 139.126 32.3289C141.507 31.8552 143.975 32.0983 146.217 33.0274C148.46 33.9566 150.376 35.53 151.725 37.5487C153.074 39.5674 153.793 41.9408 153.793 44.3687C153.79 47.6232 152.495 50.7435 150.195 53.0448C147.894 55.3461 144.774 56.6407 141.521 56.6443Z" fill="#6C63FF"/>
<path d="M213.051 54.4123H165.553C164.786 54.4225 164.043 54.1426 163.473 53.6287C162.904 53.1147 162.549 52.4046 162.48 51.6403C162.452 51.2333 162.509 50.8251 162.645 50.4409C162.782 50.0566 162.996 49.7045 163.274 49.4064C163.553 49.1083 163.889 48.8706 164.263 48.7079C164.637 48.5451 165.04 48.461 165.448 48.4605H212.934C213.705 48.4492 214.451 48.7299 215.024 49.2464C215.596 49.763 215.953 50.477 216.021 51.2452C216.046 51.6512 215.989 52.0581 215.851 52.4409C215.713 52.8237 215.499 53.1743 215.221 53.471C214.943 53.7677 214.607 54.0044 214.234 54.1662C213.86 54.3281 213.458 54.4119 213.051 54.4123Z" fill="#3F3D56"/>
<path d="M188.134 41.7647H165.553C164.786 41.7748 164.043 41.495 163.473 40.981C162.904 40.4671 162.549 39.757 162.48 38.9926C162.452 38.5857 162.509 38.1775 162.645 37.7932C162.782 37.409 162.996 37.0569 163.274 36.7588C163.553 36.4607 163.889 36.2229 164.263 36.0602C164.637 35.8975 165.04 35.8133 165.448 35.8129H188.016C188.787 35.8015 189.534 36.0823 190.107 36.5988C190.679 37.1153 191.035 37.8293 191.103 38.5975C191.129 39.0035 191.071 39.4104 190.934 39.7933C190.796 40.1761 190.582 40.5266 190.303 40.8234C190.025 41.1201 189.689 41.3567 189.316 41.5186C188.943 41.6805 188.541 41.7642 188.134 41.7647Z" fill="#3F3D56"/>
<path d="M282.68 168.289C282.863 167.773 282.931 167.224 282.878 166.68C282.826 166.135 282.655 165.609 282.377 165.138C282.1 164.667 281.722 164.262 281.271 163.953C280.821 163.644 280.307 163.437 279.768 163.347L277.526 150.245L272.484 154.966L275.387 166.685C275.296 167.601 275.545 168.519 276.086 169.264C276.627 170.009 277.422 170.529 278.321 170.727C279.22 170.925 280.161 170.786 280.964 170.336C281.767 169.887 282.378 169.158 282.68 168.289V168.289Z" fill="#FFB8B8"/>
<path d="M279.331 162.02L274.381 163.319C274.146 163.38 273.896 163.346 273.685 163.226C273.474 163.105 273.318 162.906 273.251 162.673L264.357 131.154L261.67 123.113C261.411 122.338 261.352 121.511 261.499 120.707C261.646 119.903 261.994 119.15 262.51 118.517C263.026 117.884 263.694 117.392 264.451 117.086C265.209 116.781 266.031 116.672 266.842 116.77C267.78 116.883 268.665 117.268 269.387 117.878C270.109 118.488 270.637 119.297 270.905 120.203L278.012 144.231L280.018 161.01C280.04 161.197 280.005 161.385 279.917 161.552C279.83 161.718 279.695 161.854 279.529 161.943C279.466 161.976 279.4 162.002 279.331 162.02Z" fill="#CCCCCC"/>
<path d="M261.243 111.453C266.288 111.453 270.377 107.363 270.377 102.317C270.377 97.2707 266.288 93.1802 261.243 93.1802C256.198 93.1802 252.109 97.2707 252.109 102.317C252.109 107.363 256.198 111.453 261.243 111.453Z" fill="#FFB8B8"/>
<path d="M234.348 227.304L229.978 226.003L232.914 208.524L239.364 210.444L234.348 227.304Z" fill="#FFB8B8"/>
<path d="M234.203 231.873L220.112 227.679L220.165 227.501C220.379 226.781 220.733 226.109 221.207 225.526C221.68 224.942 222.264 224.458 222.925 224.1C223.586 223.742 224.31 223.518 225.058 223.44C225.805 223.363 226.561 223.433 227.281 223.647L227.281 223.647L235.888 226.209L234.203 231.873Z" fill="#2F2E41"/>
<path d="M282.226 227.08H277.667L275.498 209.489L279.996 209.49L282.226 227.08Z" fill="#FFB8B8"/>
<path d="M283.389 231.501L268.688 231.5V231.314C268.688 230.563 268.836 229.818 269.123 229.124C269.411 228.43 269.832 227.799 270.364 227.267C270.895 226.736 271.526 226.314 272.22 226.026C272.914 225.739 273.658 225.591 274.41 225.591H274.41L283.389 225.591L283.389 231.501Z" fill="#2F2E41"/>
<path d="M236.03 222.132H231.452C231.206 222.132 230.964 222.078 230.742 221.974C230.519 221.87 230.323 221.718 230.166 221.53C230.009 221.341 229.895 221.12 229.833 220.883C229.771 220.646 229.761 220.397 229.806 220.156C226.886 218.857 242.605 143.457 246.319 144.919L246.441 144.743L265.143 146.269C273.52 163.038 278.822 190.786 283.784 219.753C283.845 219.994 283.852 220.245 283.804 220.488C283.756 220.732 283.655 220.961 283.507 221.161C283.36 221.36 283.17 221.524 282.951 221.641C282.732 221.758 282.49 221.825 282.243 221.837L277.099 222.087C276.751 222.105 276.406 222.013 276.113 221.825C275.819 221.636 275.592 221.361 275.464 221.036L255.757 171.76C255.718 171.652 255.646 171.56 255.55 171.497C255.455 171.434 255.341 171.403 255.227 171.409C255.113 171.41 255.002 171.447 254.91 171.514C254.817 171.581 254.749 171.676 254.713 171.784L237.61 221.008C237.496 221.336 237.282 221.621 236.999 221.822C236.716 222.024 236.377 222.132 236.03 222.132Z" fill="#2F2E41"/>
<path d="M265.535 147.745L265.392 147.734L245.48 146.231L248.973 124.012C249.356 121.532 250.531 119.242 252.322 117.485C254.113 115.727 256.424 114.596 258.91 114.261C259.063 114.239 259.217 114.218 259.372 114.198C261.326 113.941 263.312 114.19 265.142 114.922C266.971 115.655 268.581 116.845 269.818 118.379C271.084 119.922 271.932 121.764 272.281 123.73C272.629 125.695 272.467 127.717 271.809 129.601L265.535 147.745Z" fill="#CCCCCC"/>
<path d="M278.98 112.767C272.699 115.641 264.177 115.127 254.435 112.767C255.783 109.074 256.833 105.506 255.642 102.887C255.16 101.898 254.889 100.821 254.844 99.7222C254.799 98.6235 254.981 97.5274 255.38 96.5026C256.314 94.2682 257.888 92.36 259.903 91.0179C261.919 89.6759 264.286 88.9599 266.707 88.9601C269.962 88.9601 273.084 90.2535 275.385 92.5556C277.687 94.8577 278.98 97.9801 278.98 101.236V112.767Z" fill="#2F2E41"/>
<path d="M257.782 89.7955H265.592V99.4019H249.228V98.3512C249.228 96.0821 250.129 93.9059 251.733 92.3014C253.337 90.6969 255.513 89.7955 257.782 89.7955Z" fill="#2F2E41"/>
<path d="M245.049 170.355C245.452 169.986 245.769 169.532 245.978 169.027C246.187 168.521 246.283 167.976 246.258 167.43C246.233 166.884 246.089 166.349 245.836 165.865C245.583 165.38 245.226 164.957 244.792 164.625L248.95 151.999L242.284 153.807L239.358 165.52C238.849 166.287 238.639 167.214 238.767 168.126C238.896 169.037 239.355 169.87 240.056 170.466C240.758 171.062 241.654 171.38 242.574 171.36C243.494 171.339 244.375 170.982 245.049 170.355Z" fill="#FFB8B8"/>
<path d="M245.027 163.247L240.047 162.075C239.81 162.018 239.605 161.872 239.475 161.666C239.345 161.46 239.3 161.212 239.351 160.974L246.261 128.961L247.654 120.599C247.789 119.793 248.125 119.034 248.631 118.393C249.137 117.752 249.797 117.25 250.55 116.932C251.302 116.615 252.123 116.493 252.935 116.579C253.747 116.664 254.525 116.953 255.195 117.42C255.972 117.959 256.573 118.714 256.925 119.592C257.277 120.469 257.364 121.431 257.176 122.357L252.196 146.915L246.108 162.677C246.039 162.852 245.92 163.003 245.765 163.109C245.61 163.215 245.427 163.272 245.239 163.272C245.168 163.272 245.097 163.264 245.027 163.247Z" fill="#CCCCCC"/>
<path d="M314.628 232H172.934C172.835 232 172.741 231.961 172.671 231.891C172.601 231.821 172.562 231.727 172.562 231.628C172.562 231.529 172.601 231.435 172.671 231.365C172.741 231.295 172.835 231.256 172.934 231.256H314.628C314.727 231.256 314.821 231.295 314.891 231.365C314.961 231.435 315 231.529 315 231.628C315 231.727 314.961 231.821 314.891 231.891C314.821 231.961 314.727 232 314.628 232Z" fill="#CCCCCC"/>
<path d="M50.2193 143.195C50.0199 143.246 49.8249 143.313 49.636 143.395L34.1374 133.394L34.3512 128.918L27.639 127.712L26.4905 135.6C26.3977 136.237 26.5141 136.887 26.8222 137.453C27.1303 138.018 27.6134 138.469 28.1991 138.736L47.2875 147.452C47.3825 148.239 47.7148 148.979 48.2403 149.572C48.7658 150.166 49.4596 150.586 50.2293 150.775C50.9991 150.965 51.8083 150.916 52.5494 150.634C53.2905 150.353 53.9284 149.852 54.3781 149.199C54.8279 148.546 55.0682 147.772 55.0671 146.979C55.0661 146.186 54.8237 145.412 54.3722 144.76C53.9208 144.108 53.2816 143.61 52.5397 143.33C51.7979 143.05 50.9885 143.003 50.2193 143.195H50.2193Z" fill="#FFB8B8"/>
<path d="M33.5051 133.119L25.1931 131.584C24.9566 131.54 24.7323 131.446 24.5355 131.308C24.3386 131.169 24.1739 130.99 24.0524 130.783C23.931 130.575 23.8557 130.344 23.8317 130.104C23.8078 129.865 23.8356 129.623 23.9135 129.396L26.6412 121.421C26.8712 120.212 27.5714 119.143 28.588 118.449C29.6046 117.756 30.8547 117.494 32.0642 117.721C33.2737 117.948 34.3438 118.645 35.0398 119.66C35.7359 120.675 36.0011 121.925 35.7773 123.136L35.4814 131.532C35.4728 131.772 35.4126 132.008 35.3047 132.223C35.1969 132.438 35.044 132.627 34.8564 132.778C34.6689 132.928 34.4511 133.037 34.2179 133.096C33.9847 133.154 33.7415 133.162 33.5051 133.119V133.119Z" fill="#3F3D56"/>
<path d="M195.371 109.995H53.6767C52.4563 109.993 51.2565 110.31 50.1956 110.914C49.9415 111.058 49.6968 111.218 49.4631 111.394C48.5779 112.05 47.8588 112.905 47.3635 113.889C46.8681 114.874 46.6103 115.961 46.6106 117.063V190.717C46.6123 192.591 47.3573 194.387 48.6821 195.712C50.0069 197.038 51.8032 197.783 53.6767 197.784H195.371C197.244 197.783 199.041 197.038 200.366 195.712C201.69 194.387 202.435 192.591 202.437 190.717V117.063C202.435 115.189 201.69 113.392 200.366 112.067C199.041 110.742 197.244 109.997 195.371 109.995Z" fill="white"/>
<path d="M195.371 109.995H53.6767C52.4563 109.993 51.2565 110.31 50.1956 110.914C49.9415 111.058 49.6968 111.218 49.4631 111.394C48.5779 112.05 47.8588 112.905 47.3635 113.889C46.8681 114.874 46.6103 115.961 46.6106 117.063V190.717C46.6123 192.591 47.3573 194.387 48.6821 195.712C50.0069 197.038 51.8032 197.783 53.6767 197.784H195.371C197.244 197.783 199.041 197.038 200.366 195.712C201.69 194.387 202.435 192.591 202.437 190.717V117.063C202.435 115.189 201.69 113.392 200.366 112.067C199.041 110.742 197.244 109.997 195.371 109.995ZM201.693 190.717C201.691 192.393 201.024 194 199.839 195.186C198.654 196.371 197.047 197.038 195.371 197.04H53.6767C52.0007 197.038 50.3939 196.371 49.2088 195.186C48.0236 194 47.3568 192.393 47.3544 190.717V117.063C47.3597 115.726 47.7858 114.425 48.5722 113.345C49.3587 112.265 50.4654 111.459 51.7353 111.044C51.7874 111.029 51.8357 111.01 51.8879 110.996C52.4688 110.825 53.0712 110.738 53.6767 110.739H195.371C197.047 110.741 198.654 111.408 199.839 112.594C201.024 113.779 201.691 115.386 201.693 117.063V190.717Z" fill="#3F3D56"/>
<path d="M124.369 153.858C123.805 153.858 123.249 153.715 122.755 153.442L48.731 112.69C48.6446 112.642 48.5806 112.562 48.5531 112.467C48.5257 112.373 48.5369 112.271 48.5845 112.184C48.6321 112.098 48.712 112.034 48.8067 112.007C48.9014 111.979 49.0032 111.99 49.0896 112.038L123.114 152.79C123.491 152.999 123.915 153.11 124.346 153.114C124.777 153.118 125.203 153.014 125.584 152.812L200.827 113.11C200.87 113.087 200.917 113.073 200.966 113.068C201.015 113.064 201.064 113.069 201.11 113.083C201.157 113.098 201.201 113.121 201.238 113.152C201.276 113.183 201.307 113.222 201.33 113.265C201.353 113.308 201.367 113.356 201.371 113.404C201.376 113.453 201.37 113.502 201.356 113.549C201.342 113.596 201.318 113.639 201.287 113.677C201.255 113.714 201.217 113.745 201.174 113.768L125.931 153.47C125.45 153.725 124.913 153.858 124.369 153.858Z" fill="#3F3D56"/>
<path d="M70.2511 179.185H59.8379C59.0488 179.185 58.292 178.871 57.7341 178.313C57.1761 177.755 56.8627 176.998 56.8627 176.209C56.8627 175.42 57.1761 174.663 57.7341 174.105C58.292 173.547 59.0488 173.233 59.8379 173.233H70.2511C71.0402 173.233 71.7969 173.547 72.3549 174.105C72.9128 174.663 73.2263 175.42 73.2263 176.209C73.2263 176.998 72.9128 177.755 72.3549 178.313C71.7969 178.871 71.0402 179.185 70.2511 179.185Z" fill="#3F3D56"/>
<path d="M82.5238 189.229H59.8379C59.0488 189.229 58.292 188.915 57.7341 188.357C57.1761 187.799 56.8627 187.042 56.8627 186.253C56.8627 185.463 57.1761 184.706 57.7341 184.148C58.292 183.59 59.0488 183.277 59.8379 183.277H82.5238C83.3129 183.277 84.0696 183.59 84.6276 184.148C85.1856 184.706 85.499 185.463 85.499 186.253C85.499 187.042 85.1856 187.799 84.6276 188.357C84.0696 188.915 83.3129 189.229 82.5238 189.229Z" fill="#3F3D56"/>
<path d="M124.339 165.793C130.912 165.793 136.24 160.464 136.24 153.89C136.24 147.315 130.912 141.986 124.339 141.986C117.767 141.986 112.438 147.315 112.438 153.89C112.438 160.464 117.767 165.793 124.339 165.793Z" fill="#6C63FF"/>
<path d="M70.3922 116.998L122.839 138.885C123.02 138.96 123.223 138.961 123.404 138.888L177.476 117.001C177.636 116.936 177.768 116.818 177.851 116.666C177.933 116.514 177.96 116.339 177.927 116.169C177.894 116 177.803 115.847 177.67 115.737C177.537 115.627 177.369 115.567 177.197 115.567H70.6786C70.5067 115.567 70.34 115.627 70.2071 115.736C70.0741 115.845 69.983 115.997 69.9493 116.165C69.9155 116.334 69.9412 116.509 70.0219 116.661C70.1027 116.812 70.2335 116.932 70.3922 116.998Z" fill="#F2F2F2"/>
<path d="M62.4081 111.487C62.3625 111.688 62.3327 111.892 62.3191 112.098L46.3432 121.316L42.4601 119.08L38.3204 124.501L44.8102 129.128C45.3345 129.501 45.9658 129.695 46.6095 129.679C47.2531 129.664 47.8743 129.439 48.3798 129.041L64.8537 116.041C65.5971 116.316 66.4068 116.359 67.1749 116.163C67.943 115.966 68.6332 115.541 69.1536 114.943C69.6741 114.345 70.0002 113.602 70.0885 112.814C70.1768 112.026 70.0231 111.23 69.648 110.531C69.2728 109.833 68.6939 109.265 67.9883 108.904C67.2827 108.542 66.4838 108.404 65.6978 108.508C64.9119 108.612 64.1762 108.952 63.5885 109.485C63.0009 110.017 62.5892 110.715 62.4081 111.487Z" fill="#FFB8B8"/>
<path d="M45.8091 121.753L40.6458 128.446C40.4989 128.637 40.3126 128.793 40.0998 128.905C39.8869 129.017 39.6524 129.082 39.4123 129.095C39.1722 129.108 38.932 129.07 38.7082 128.982C38.4844 128.894 38.2822 128.758 38.1154 128.585L32.2701 122.514C31.3003 121.756 30.6704 120.645 30.5184 119.424C30.3663 118.203 30.7046 116.971 31.4591 115.999C32.2136 115.027 33.3226 114.393 34.5431 114.238C35.7636 114.082 36.996 114.417 37.9701 115.169L45.3014 119.269C45.5112 119.387 45.6933 119.548 45.8352 119.742C45.9772 119.937 46.0756 120.159 46.1238 120.395C46.1719 120.631 46.1688 120.874 46.1145 121.108C46.0602 121.343 45.9561 121.562 45.8091 121.753H45.8091Z" fill="#3F3D56"/>
<path d="M24.6647 105.771C29.7094 105.771 33.799 101.68 33.799 96.6342C33.799 91.5883 29.7094 87.4978 24.6647 87.4978C19.62 87.4978 15.5305 91.5883 15.5305 96.6342C15.5305 101.68 19.62 105.771 24.6647 105.771Z" fill="#FFB8B8"/>
<path d="M33.287 227.452H37.8465L40.0154 209.861L33.2862 209.862L33.287 227.452Z" fill="#FFB8B8"/>
<path d="M32.124 225.963L41.1031 225.963H41.1035C41.8549 225.963 42.599 226.111 43.2933 226.398C43.9875 226.686 44.6184 227.108 45.1497 227.639C45.6811 228.171 46.1026 228.802 46.3902 229.496C46.6777 230.19 46.8257 230.935 46.8257 231.686V231.872L32.1243 231.873L32.124 225.963Z" fill="#2F2E41"/>
<path d="M17.6672 227.452H22.2267L24.3956 209.861L17.6664 209.862L17.6672 227.452Z" fill="#FFB8B8"/>
<path d="M16.5042 225.963L25.4833 225.963H25.4836C26.2351 225.963 26.9792 226.111 27.6735 226.398C28.3677 226.686 28.9985 227.108 29.5299 227.639C30.0613 228.171 30.4827 228.802 30.7703 229.496C31.0579 230.19 31.2059 230.935 31.2059 231.686V231.872L16.5044 231.873L16.5042 225.963Z" fill="#2F2E41"/>
<path d="M31.919 220.776L27.2682 184.785C27.2658 184.737 27.2447 184.692 27.2095 184.659C27.1743 184.627 27.1278 184.61 27.08 184.611C27.0561 184.61 27.0322 184.614 27.0099 184.623C26.9875 184.631 26.9672 184.645 26.95 184.661C26.9329 184.678 26.9194 184.698 26.9102 184.72C26.9011 184.742 26.8965 184.766 26.8969 184.79L25.5603 220.259C25.5453 220.692 25.3624 221.103 25.0503 221.403C24.7381 221.704 24.3212 221.872 23.8879 221.87H18.3653C17.9277 221.873 17.5067 221.703 17.1936 221.397C16.8804 221.091 16.7003 220.674 16.6923 220.237L15.2586 161.14L39.9737 161.387L40.5906 220.674C40.5851 220.909 40.53 221.141 40.4289 221.354C40.3277 221.567 40.1828 221.756 40.0036 221.909C39.8283 222.06 39.6231 222.172 39.4015 222.239C39.1799 222.306 38.9467 222.325 38.7171 222.296L33.3615 222.311C32.9819 222.258 32.6316 222.078 32.3691 221.798C32.1065 221.519 31.9477 221.158 31.919 220.776Z" fill="#2F2E41"/>
<path d="M14.8925 162.757C14.616 162.651 14.3726 162.473 14.187 162.243C14.0015 162.012 13.8805 161.736 13.8364 161.443L13.5897 128.965C12.4974 121.734 11.2055 114.648 17.5265 110.984L18.0835 109.313C18.1442 109.132 18.2587 108.974 18.4116 108.861C18.5645 108.747 18.7485 108.683 18.9389 108.677L30.93 108.334C31.1166 108.328 31.3007 108.378 31.4581 108.479C31.6154 108.579 31.7385 108.725 31.8111 108.897L32.703 110.979L33.0197 111.16C36.0322 112.877 38.4716 115.445 40.0326 118.543C41.5936 121.64 42.2069 125.128 41.7959 128.572L41.1103 134.362L40.6233 161.42C40.617 161.717 40.5324 162.007 40.3782 162.261C40.224 162.515 40.0055 162.724 39.7449 162.866C36.2614 164.774 32.4022 165.426 28.7504 165.426C22.6148 165.426 17.0676 163.583 14.8925 162.757Z" fill="#3F3D56"/>
<path d="M24.3673 106.109C22.9926 106.139 21.6271 105.877 20.3606 105.342C19.0942 104.806 17.9554 104.008 17.0191 103.001C16.0829 101.993 15.3703 100.799 14.9283 99.4969C14.4863 98.1945 14.3249 96.8133 14.4546 95.444C14.5843 94.0747 15.0022 92.7484 15.6809 91.5522C16.3596 90.3561 17.2836 89.3171 18.3924 88.5035C19.5011 87.69 20.7694 87.1204 22.1139 86.832C23.4584 86.5437 24.8487 86.5433 26.1934 86.8307C28.2021 85.6107 30.5375 84.7899 32.8782 84.9987C35.2189 85.2074 37.5338 86.5974 38.4091 88.7788C39.2844 90.9602 38.3441 93.8357 36.1676 94.7222C34.7723 95.2906 33.1966 95.015 31.7076 94.7858C30.2186 94.5566 28.5942 94.407 27.2982 95.1755C26.0023 95.944 25.4197 98.0047 26.5804 98.9655C27.1956 99.495 27.6349 100.199 27.8399 100.985C28.0448 101.77 28.0055 102.6 27.7274 103.363C27.144 104.871 25.552 106.084 24.3673 106.109Z" fill="#2F2E41"/>
<path d="M58.3884 232H0.371901C0.273267 232 0.178672 231.961 0.108927 231.891C0.039182 231.821 0 231.727 0 231.628C0 231.529 0.039182 231.435 0.108927 231.365C0.178672 231.295 0.273267 231.256 0.371901 231.256H58.3884C58.4871 231.256 58.5817 231.295 58.6514 231.365C58.7211 231.435 58.7603 231.529 58.7603 231.628C58.7603 231.727 58.7211 231.821 58.6514 231.891C58.5817 231.961 58.4871 232 58.3884 232Z" fill="#CCCCCC"/>
</g>
<defs>
<clipPath id="clip0_2314_67834">
<rect width="315" height="232" fill="white"/>
</clipPath>
</defs>
</svg>
