<?xml version="1.0" encoding="utf-8"?>
<!-- Generator: Adobe Illustrator 26.3.1, SVG Export Plug-In . SVG Version: 6.00 Build 0)  -->
<svg version="1.1" id="레이어_1" xmlns="http://www.w3.org/2000/svg" xmlns:xlink="http://www.w3.org/1999/xlink" x="0px"
	 y="0px" viewBox="0 0 500 500" style="enable-background:new 0 0 500 500;" xml:space="preserve">
<style type="text/css">
	.st0{fill:#4380F9;}
</style>
<path class="st0" d="M472.6,160c-17.8-43.7-45.8-78.9-83.8-106.3C367,38,342.9,26.7,316.9,19.1c-18.2-5.3-36.7-8.6-55.4-9.5
	C227.8,8,194.9,13,163.2,25.2C129.9,38,101,57,76.2,82.3c-25.5,26-43.7,56.5-55.4,90.9C14.1,192.6,9.4,212.6,9,233
	c-0.7,41.3-0.2,82.6-0.2,123.9c-0.1,0-0.1,0-0.2,0c0,42.2,0.1,84.5-0.1,126.7c0,5.6,1.1,7.6,7.2,7.5c17.5-0.4,35-0.1,52.6-0.1
	c9.1,0,9.1,0,9.1-9c0-77.5,0-154.9,0-232.4c0-29.4,7.4-56.9,22-82.2c29.6-51.2,73.7-80.9,132.8-88.4c21-2.7,41.5-0.4,61.5,5
	c34.9,9.4,64.4,28.3,87.5,56.4c36.1,43.9,47.6,94.1,35.3,149c-4.6,20.7-12.9,39.6-24.5,56.5c-7.9,11.5-17.3,22.1-28.2,31.8
	c-32.2,28.6-70,43.1-113,44.1c-20.7,0.5-36.1-15.2-36.2-35.9c0-44.8,0-89.6-0.1-134.4c0-4.7,0.8-9.1,2.5-13.6
	c6.2-16.2,21.4-24.1,40-21.3c12.6,1.9,26.5,18.1,26.2,32.8c-0.6,30.3-0.1,60.7-0.3,91c0,5.7,2.2,6.5,6.6,4.4
	c34.1-15.7,55.2-42.1,61.4-78.9c3.3-19.8,0.9-39.8-7.8-58.6c-18.6-39.8-55.6-61.1-96.2-60.7c-21.4,0.2-41.4,7.1-58.8,20.5
	c-26.6,20.4-41.5,47.3-42,80.4c-1,60.2-0.3,120.4-0.4,180.6c0,19.1,0.1,38.3-0.1,57.4c0,4.2,1.2,5.7,5.5,5.5
	c9.3-0.3,18.7,0.1,28-0.1c31.5-0.8,63,1.5,94.5-1.8c24.9-2.6,48.9-8.4,71.6-18.4c38.3-16.9,70.4-42,95.9-75.5c0.4-0.5,0.8-1,1.1-1.5
	c25.7-34.4,41.3-73.1,45.9-115.4C492.8,237.9,488.2,198.3,472.6,160z"/>
</svg>
