<svg width="65" height="65" viewBox="0 0 65 65" fill="none" xmlns="http://www.w3.org/2000/svg">
<path d="M32.18 0C14.41 0 0 14.41 0 32.18V64.36H9.19V32.48C9.19 19.83 19.29 9.33 31.95 9.2C44.73 9.08 55.16 19.43 55.16 32.18C55.16 44.87 44.87 55.16 32.18 55.16C29.64 55.16 27.58 53.1 27.58 50.56V32.17C27.58 29.15 30.48 26.82 33.65 27.8C35.54 28.39 36.77 30.19 36.77 32.17V45.17C42.12 43.27 45.96 38.16 45.96 32.17C45.96 24.65 39.9 18.51 32.41 18.38C24.69 18.25 18.38 24.7 18.38 32.41V64.34H32.17C49.94 64.34 64.35 49.93 64.35 32.16C64.35 14.39 49.95 0 32.18 0Z" fill="#4380F9"/>
</svg>
