<svg width="58" height="20" viewBox="0 0 58 20" fill="none" xmlns="http://www.w3.org/2000/svg">
  <path d="M19.4723 6.25548C18.7243 4.44421 17.5531 2.97813 15.9548 1.84336C15.0384 1.19265 14.0297 0.718511 12.9367 0.40506C12.1747 0.188818 11.4006 0.0499475 10.6145 0.012254C9.1987 -0.0551974 7.81899 0.155092 6.48742 0.660978C5.09368 1.19067 3.87641 1.97827 2.83561 3.02972C1.76674 4.10894 1.00069 5.37663 0.509368 6.80303C0.232625 7.60848 0.0340915 8.43774 0.0200538 9.28683C-0.00802154 11.0009 0.0120323 12.715 0.0120323 14.429H0.00601615C0.00601615 16.1828 0.0100269 17.9345 0 19.6882C0 19.9204 0.0441185 20.0057 0.300808 19.9997C1.03478 19.9819 1.77075 19.9938 2.50673 19.9938C2.76208 19.9938 2.88976 19.8688 2.88976 19.6188C2.88976 16.403 2.88976 13.1891 2.88976 9.97325C2.88976 8.75515 3.19859 7.61245 3.81424 6.561C5.05758 4.43628 6.90454 3.20231 9.3872 2.89283C10.2696 2.78173 11.1299 2.87696 11.9681 3.10113C13.4341 3.49394 14.6694 4.2736 15.64 5.44408C17.1541 7.26725 17.6353 9.35032 17.124 11.6298C16.9315 12.4888 16.5845 13.2724 16.0972 13.9747C15.7663 14.4528 15.3713 14.8932 14.914 15.294C13.5604 16.4803 11.9762 17.0854 10.1733 17.1231C9.30298 17.141 8.65724 16.4942 8.65724 15.6352C8.65724 13.7763 8.65724 11.9155 8.65524 10.0566C8.65524 9.86017 8.68732 9.67964 8.75952 9.49315C9.01821 8.82261 9.65592 8.4913 10.44 8.61033C10.9674 8.68969 11.551 9.36023 11.539 9.97325C11.5129 11.231 11.535 12.4908 11.5269 13.7505C11.5269 13.9886 11.6192 14.0184 11.8037 13.935C13.2335 13.2823 14.1199 12.1892 14.3806 10.6597C14.521 9.83636 14.4207 9.00711 14.0517 8.22745C13.2716 6.57489 11.7175 5.69008 10.0149 5.70794C9.11447 5.71785 8.27822 6.00155 7.54626 6.55703C6.43127 7.40216 5.80559 8.51907 5.78152 9.89191C5.7374 12.3896 5.76748 14.8893 5.76548 17.387C5.76548 18.1805 5.76949 18.976 5.76147 19.7696C5.76147 19.9461 5.8096 20.0057 5.99409 19.9977C6.38514 19.9838 6.7782 20.0017 7.17125 19.9918C8.4928 19.96 9.81435 20.0553 11.1359 19.9164C12.1807 19.8073 13.1894 19.5692 14.14 19.1526C15.7463 18.4503 17.0959 17.4068 18.1628 16.0181C18.1788 15.9983 18.1948 15.9784 18.2109 15.9566C19.2898 14.5282 19.9455 12.9233 20.1381 11.1636C20.3206 9.4872 20.13 7.84456 19.4743 6.25548H19.4723Z" fill="#4380F9"/>
  <path d="M38.9867 0.343842C39.6505 0.343842 40.19 0.877502 40.19 1.53416V14.8261H37.7835V1.53416C37.7835 0.877502 38.323 0.343842 38.9867 0.343842Z" fill="#4380F9"/>
  <path d="M43.1979 4.31165C43.8617 4.31165 44.4011 4.84531 44.4011 5.50197V14.8261H41.9947V5.50197C41.9947 4.84531 42.5341 4.31165 43.1979 4.31165Z" fill="#4380F9"/>
  <path d="M43.599 0.145416C44.4854 0.145416 45.2033 0.855641 45.2033 1.73251C45.2033 2.60938 44.4854 3.31961 43.599 3.31961H41.9947V1.73251C41.9947 0.855641 42.7126 0.145416 43.599 0.145416Z" fill="#4380F9"/>
  <path d="M30.4638 4.90692C27.4176 4.90692 24.949 7.34906 24.949 10.3626V19.3892H27.3554V15.8182H30.4638C33.5099 15.8182 35.9786 13.3761 35.9786 10.3626C35.9786 7.34906 33.5099 4.90692 30.4638 4.90692ZM33.5721 10.3626C33.5721 12.0607 32.1804 13.4376 30.4638 13.4376H27.3554V10.3626C27.3554 8.66437 28.7472 7.28756 30.4638 7.28756C32.1804 7.28756 33.5721 8.66437 33.5721 10.3626Z" fill="#4380F9"/>
  <path d="M51.6206 4.90692C48.5745 4.90692 46.1058 7.34906 46.1058 10.3626V19.3892H48.5123V15.8182H51.6206C54.6668 15.8182 57.1354 13.3761 57.1354 10.3626C57.1354 7.34906 54.6668 4.90692 51.6206 4.90692ZM54.729 10.3626C54.729 12.0607 53.3372 13.4376 51.6206 13.4376H48.5123V10.3626C48.5123 8.66437 49.904 7.28756 51.6206 7.28756C53.3372 7.28756 54.729 8.66437 54.729 10.3626Z" fill="#4380F9"/>
</svg>