<svg width="337" height="173" viewBox="0 0 337 173" fill="none" xmlns="http://www.w3.org/2000/svg">
<path d="M276.606 154.774H68.1996C66.2627 154.774 64.6872 153.192 64.6872 151.246C64.6872 149.301 66.2627 147.719 68.1996 147.719H276.606C278.543 147.719 280.119 149.301 280.119 151.246C280.119 153.192 278.543 154.774 276.606 154.774Z" fill="#E6E6E6"/>
<path d="M230.359 173H114.447C112.51 173 110.935 171.418 110.935 169.472C110.935 167.527 112.51 165.945 114.447 165.945H230.359C232.296 165.945 233.871 167.527 233.871 169.472C233.871 171.418 232.296 173 230.359 173Z" fill="#E6E6E6"/>
<path d="M91.3912 31.7347L104.526 26.1832L110.159 37.7821L96.3569 43.4401L91.3912 31.7347Z" fill="#FFB6B6"/>
<path opacity="0.1" d="M91.3912 31.7347L104.526 26.1832L110.159 37.7821L96.3569 43.4401L91.3912 31.7347Z" fill="black"/>
<path d="M93.2584 27.3148L106.216 42.3085C106.216 42.3085 97.202 70.8813 88.1881 73.4274C79.1743 75.9735 62.555 88.421 62.555 88.421L41.7104 74.8419L51.851 59.8482C51.851 59.8482 76.3575 26.1832 82.8362 26.1832C89.3149 26.1832 93.2584 27.3148 93.2584 27.3148V27.3148Z" fill="#6C63FF"/>
<path d="M75.7518 125.057H45.5892L43.6822 122.496L35.8965 112.043L34.105 109.639C34.105 109.639 27.3446 97.191 28.753 85.875C30.1614 74.559 44.809 72.0129 44.809 72.0129H45.4118L63.3437 87.8383L62.2733 102.566L67.952 112.043L75.7518 125.057Z" fill="#2F2E41"/>
<path d="M51.7665 125.057H43.6822V113.033L51.7665 125.057Z" fill="#2F2E41"/>
<path d="M273.993 40.9601L277.009 59.8493L257.958 60.0961V43.6735L273.993 40.9601Z" fill="#FFB6B6"/>
<path opacity="0.1" d="M273.993 40.9601L277.009 59.8493L257.958 60.0961V43.6735L273.993 40.9601Z" fill="black"/>
<path d="M319.371 106.804L318.365 112.043L315.87 125.056H265.733C266.124 122.14 266.66 117.942 267.232 113.41C267.288 112.957 267.347 112.501 267.403 112.043C268.837 100.651 270.406 87.759 270.406 87.759L276.997 88.5625L289.786 90.1184L294.997 90.7521L308.952 92.4524C315.909 93.2982 320.695 99.8898 319.371 106.804Z" fill="#F2F2F2"/>
<path d="M226.134 106.804L225.128 112.043L222.633 125.056H172.496C172.887 122.14 173.423 117.942 173.994 113.41C174.051 112.957 174.11 112.501 174.166 112.043C175.6 100.651 177.169 87.759 177.169 87.759L183.76 88.5625L196.549 90.1184L201.76 90.7521L215.715 92.4524C222.672 93.2982 227.458 99.8898 226.134 106.804Z" fill="#F2F2F2"/>
<path d="M297.087 125.057H269.893C270.308 124.567 270.541 124.284 270.541 124.284L278.693 122.932L295.49 120.148C295.49 120.148 296.256 122.137 297.087 125.057V125.057Z" fill="#2F2E41"/>
<path d="M259.677 125.056H218.61C219.019 124.242 219.441 123.424 219.875 122.609C220.455 121.52 221.075 120.55 221.731 119.687C222.168 119.113 222.619 118.587 223.083 118.106C224.449 116.694 225.937 115.667 227.503 114.963C233.094 112.436 239.683 113.984 245.294 116.502C247.401 117.446 249.37 118.527 251.097 119.58C254.139 121.435 256.435 123.206 257.412 123.993C257.75 124.262 257.93 124.417 257.93 124.417L259.677 125.056V125.056Z" fill="#2F2E41"/>
<path d="M227.097 125.056H221.272L222.807 123.266L223.675 122.253L224.047 122.556L227.097 125.056Z" fill="#FFB6B6"/>
<path d="M299.076 125.056H248.914L251.097 119.58L254.097 112.043L255.604 108.258L254.359 102.937C254.359 102.937 253.745 102.501 252.809 101.717C249.477 98.9449 242.06 91.8045 243.765 84.4718C245.703 76.1263 248.136 59.8624 248.652 56.3573C248.717 55.9188 248.75 55.6812 248.75 55.6812L255.99 53.8989L256.229 53.8395L257.006 53.6471H276.397L290.659 63.3477L290.656 63.4496L289.786 90.1185L289.414 101.528C289.414 101.528 288.966 103.174 289.073 105.732C289.144 107.486 289.473 109.667 290.386 112.043C291.352 114.569 292.977 117.314 295.645 119.993C297.659 122.015 298.636 123.718 299.076 125.057V125.056Z" fill="#6C63FF"/>
<path d="M294.997 90.7521C294.521 94.6731 294.065 97.4597 294.065 97.4597L289.073 105.732L285.265 112.043L278.693 122.932L277.73 124.53L277.043 125.056H256.426L257.412 123.993L267.232 113.41L268.502 112.043L270.561 109.822L276.997 88.5625L284.583 63.5061C284.583 63.5061 287.656 62.4311 290.656 63.4495C292.234 63.9842 293.794 65.0989 294.867 67.2602C296.921 71.3849 295.921 83.1817 294.997 90.7521Z" fill="#6C63FF"/>
<path d="M258.73 90.0676L252.809 101.717L247.562 112.043L245.294 116.502L244.401 118.261L236.748 125.057H219.419L222.275 121.492L223.337 120.162L227.503 114.963L229.841 112.043L236.187 104.116L237.88 68.0133C238.161 62.0252 242.704 57.1846 248.616 56.3633C248.629 56.3615 248.641 56.3595 248.652 56.3573C250.573 55.9698 253.626 55.8566 255.99 58.1509C256.071 58.2273 256.15 58.3093 256.229 58.3942C256.626 58.8157 257.001 59.3108 257.344 59.8907C257.378 59.9473 257.412 60.0067 257.443 60.0661C257.542 60.2472 257.637 60.4452 257.725 60.6574C260.742 67.7129 258.73 90.0676 258.73 90.0676L258.73 90.0676Z" fill="#6C63FF"/>
<path d="M181.739 37.3932L193.565 54.1901L172.937 54.8088L170.722 39.0237L181.739 37.3932Z" fill="#A0616A"/>
<path opacity="0.1" d="M181.739 37.3932L193.565 54.1901L172.937 54.8088L170.722 39.0237L181.739 37.3932Z" fill="black"/>
<path d="M123.418 72.1951C121.901 67.7988 118.412 65.0216 115.626 65.9919C112.841 66.9622 111.813 71.3121 113.332 75.7097C113.914 77.4748 114.909 79.074 116.234 80.3737L122.897 98.9193L131.496 95.5933L124.014 77.6637C124.253 75.8191 124.049 73.9439 123.418 72.1951Z" fill="#A0616A"/>
<path d="M203.469 63.6362L203.453 80.7544L201.867 87.0773L198.605 100.082L196.231 112.043L194.462 120.954L193.831 124.137C193.354 124.457 192.881 124.762 192.408 125.056H151.206C148.865 123.645 147.556 122.547 147.556 122.547C147.556 122.547 148.204 121.936 148.944 120.954C150.195 119.297 151.708 116.581 150.781 113.987C150.587 113.443 150.536 112.781 150.595 112.043C150.972 107.172 156.06 98.9335 156.06 98.9335L155.006 86.7066L154.544 81.3486L157.801 55.2227L168.418 49.0244L170.251 48.8463L188.343 47.8646L195.821 48.2974L196.162 48.3908L203.469 63.6363L203.469 63.6362Z" fill="#CCCCCC"/>
<path d="M204.273 125.057H195.259L194.862 120.954L194.853 120.872L197.405 120.697L204.044 120.242L204.16 122.697L204.25 124.581L204.273 125.057Z" fill="#FFB6B6"/>
<path d="M206.492 67.7751L210.278 90.0874L207.188 112.043L206.706 115.461L205.856 121.495L205.594 123.351L205.602 123.551L205.667 125.057H194.963L194.569 120.954L194.535 120.587L193.729 112.185L193.715 112.043L192.005 94.2262L195.357 81.3486L195.605 80.4009V80.3981L197.064 58.3489L195.934 48.3286L195.923 48.2352C195.945 48.2494 195.965 48.2635 195.988 48.2777C196.047 48.3145 196.106 48.3512 196.162 48.3908C202.742 52.5834 206.663 59.9388 206.492 67.7751Z" fill="#CCCCCC"/>
<path d="M161.636 59.4982L157.52 55.2224C157.52 55.2224 148.708 59.212 148.269 61.4254C147.83 63.6388 132.272 96.1475 132.272 96.1475L125.503 77.9915L116.693 83.8993C116.693 83.8993 123.762 112.087 130.374 113.411C136.986 114.734 159.145 80.0473 159.145 80.0473L161.636 59.4982H161.636Z" fill="#CCCCCC"/>
<path d="M263.897 49.3672C271.461 49.3672 277.593 43.2089 277.593 35.6124C277.593 28.0159 271.461 21.8577 263.897 21.8577C256.333 21.8577 250.202 28.0159 250.202 35.6124C250.202 43.2089 256.333 49.3672 263.897 49.3672Z" fill="#FFB6B6"/>
<path d="M269.576 41.0202C269.576 41.0202 268.157 37.0917 267.352 35.0532C266.546 33.0147 267.071 30.3693 267.071 30.3693C267.071 30.3693 256.328 27.9877 252.121 30.3482C247.914 32.7088 247.631 20.8356 251.901 17.6042C251.901 17.6042 253.044 19.6 252.601 20.1738L252.157 20.7476C252.157 20.7476 255.388 13.8847 260.844 13.5411C260.844 13.5411 263.43 15.6135 262.456 16.2976C261.481 16.9816 269.641 12.4306 271.061 16.3591C271.061 16.3591 276.264 17.2901 275.25 19.075L275.336 20.3069C275.336 20.3069 280.052 19.8151 279.716 23.1714C279.716 23.1714 278.129 22.8538 277.115 23.5342C276.1 24.2146 279.528 27.4408 279.528 27.4408C279.528 27.4408 281.589 40.8845 274.443 44.7552C274.443 44.7552 275.602 38.6372 272.875 39.6373C270.147 40.6375 269.576 41.0202 269.576 41.0202V41.0202Z" fill="#2F2E41"/>
<path d="M328.772 128.375H8.22825C3.69117 128.375 0 124.668 0 120.112C0 115.555 3.69117 111.848 8.22825 111.848H328.772C333.309 111.848 337 115.555 337 120.112C337 124.668 333.309 128.375 328.772 128.375Z" fill="#E6E6E6"/>
<path d="M201.593 86.6592L200.97 115.867C200.91 118.694 198.61 120.955 195.794 120.955H142.297C139.547 120.955 137.278 118.796 137.128 116.039L135.538 86.8316C135.376 83.8531 137.737 81.3486 140.707 81.3486H196.417C199.32 81.3486 201.655 83.7448 201.593 86.6592Z" fill="#3F3D56"/>
<path d="M317.84 86.6592L317.216 115.867C317.156 118.694 314.857 120.955 312.041 120.955H258.543C255.794 120.955 253.524 118.796 253.374 116.039L251.784 86.8316C251.622 83.8531 253.983 81.3486 256.953 81.3486H312.664C315.566 81.3486 317.902 83.7448 317.84 86.6592Z" fill="#3F3D56"/>
<path d="M115.23 38.7851C122.299 38.7851 128.029 33.0299 128.029 25.9304C128.029 18.8309 122.299 13.0757 115.23 13.0757C108.161 13.0757 102.43 18.8309 102.43 25.9304C102.43 33.0299 108.161 38.7851 115.23 38.7851Z" fill="#FFB6B6"/>
<path d="M93.8218 59.5653L95.2302 74.8419L104.807 113.599L96.5334 116.512L82.5545 74.2761L80.6237 57.3021L93.8218 59.5653Z" fill="#FFB6B6"/>
<path d="M90.0121 86.6592L89.3889 115.867C89.3286 118.694 87.0291 120.955 84.2133 120.955H30.7156C27.9663 120.955 25.6966 118.796 25.5465 116.039L23.9566 86.8316C23.7945 83.8531 26.1556 81.3486 29.1257 81.3486H84.8365C87.739 81.3486 90.0743 83.7448 90.0121 86.6592H90.0121Z" fill="#3F3D56"/>
<path d="M106.332 121.152C111.915 121.152 116.441 119.142 116.441 116.662C116.441 114.182 111.915 112.171 106.332 112.171C100.75 112.171 96.224 114.182 96.224 116.662C96.224 119.142 100.75 121.152 106.332 121.152Z" fill="#FFB6B6"/>
<path d="M73.9631 61.9009L79.7376 30.9925C79.7376 30.9925 95.7936 28.7293 96.3569 34.1044C96.9203 39.4795 95.9544 65.7482 95.9544 65.7482L73.9631 61.9009V61.9009Z" fill="#6C63FF"/>
<path d="M110.063 27.9517C110.063 27.9517 117.981 25.1136 121.32 23.5866C124.66 22.0596 131.296 32.7103 131.443 27.0853C131.591 21.4604 129.298 19.1015 129.298 19.1015C129.298 19.1015 128.725 6.79603 116.381 8.3345C116.381 8.3345 119.097 2.17795 110.184 1.22595C101.271 0.273952 87.4052 21.8896 88.647 25.1199C89.8888 28.3503 91.3774 31.0209 87.8543 34.4749C84.3312 37.9289 77.7341 57.4221 82.7535 62.6675C87.7728 67.913 88.1022 70.1892 84.6631 73.4526C81.2241 76.7159 73.0952 83.8117 81.8844 85.0435C90.6737 86.2754 81.0803 85.3553 87.6328 79.5668C94.1854 73.7782 103.747 74.0147 100.177 64.7274C96.6066 55.4402 102.809 42.1317 102.033 40.1127C101.257 38.0937 103.772 25.2732 103.772 25.2732C103.772 25.2732 109.625 24.4095 110.063 27.9517V27.9517Z" fill="#2F2E41"/>
<path d="M175.416 43.4728C183.111 43.4728 189.349 37.2078 189.349 29.4795C189.349 21.7512 183.111 15.4862 175.416 15.4862C167.721 15.4862 161.483 21.7512 161.483 29.4795C161.483 37.2078 167.721 43.4728 175.416 43.4728Z" fill="#A0616A"/>
<path d="M176.528 10.6664C176.125 10.9028 175.585 10.5452 175.455 10.0947C175.326 9.64415 175.477 9.16583 175.626 8.72161L176.378 6.48537C176.911 4.89938 177.477 3.25797 178.632 2.05082C180.374 0.228832 183.144 -0.234674 185.638 0.101119C188.84 0.532346 191.999 2.27367 193.488 5.15318C194.976 8.03269 194.343 12.0506 191.652 13.8472C195.487 18.2607 196.823 23.1795 196.612 29.0329C196.401 34.8863 190.05 40.2733 185.908 44.3968C184.983 43.8337 184.142 41.1946 184.65 40.2359C185.159 39.2772 184.43 38.1665 185.06 37.2835C185.69 36.4004 186.217 37.8065 185.58 36.9284C185.179 36.3744 186.747 35.0997 186.15 34.7681C183.26 33.1641 182.299 29.5472 180.485 26.7774C178.296 23.4366 174.55 21.1741 170.585 20.7988C168.401 20.592 166.095 20.9665 164.305 22.2398C162.515 23.5131 161.356 25.7886 161.771 27.9518C160.696 26.8555 160.161 25.249 160.363 23.7237C160.565 22.1985 161.499 20.7881 162.822 20.0119C162.017 17.3406 162.706 14.2678 164.573 12.2006C166.44 10.1335 174.013 10.4855 176.739 11.0296L176.528 10.6664Z" fill="#2F2E41"/>
<path d="M176.951 20.8799C180.561 21.2712 183.167 24.4116 185.368 27.3118C186.637 28.9834 187.965 30.8294 187.934 32.9308C187.901 35.0555 186.487 36.8779 185.811 38.8914C184.706 42.1826 185.783 46.0983 188.413 48.3534C185.814 48.8487 183.005 46.8916 182.556 44.2734C182.034 41.2254 184.334 38.2837 184.062 35.203C183.822 32.489 181.692 30.4002 179.882 28.3708C178.071 26.3415 176.371 23.6487 177.204 21.0555L176.951 20.8799Z" fill="#2F2E41"/>
</svg>
