<?xml version="1.0" encoding="UTF-8"?><svg id="a" xmlns="http://www.w3.org/2000/svg" viewBox="0 0 500 500"><defs><style>.b,.c{fill:#05f;}.d{fill:#04c;}.e{fill:#ff6b00;}.f{opacity:.2;}.g{opacity:.8;}.c{fill-rule:evenodd;}</style></defs><path class="d" d="M250,426.18c-.57,0-1.15-.15-1.66-.45l-149.7-86.43c-1.03-.59-1.66-1.69-1.66-2.88V163.57c0-1.19,.63-2.29,1.66-2.88L248.34,74.27c1.03-.6,2.3-.6,3.32,0l149.7,86.43c1.03,.59,1.66,1.69,1.66,2.88v172.85c0,1.19-.63,2.29-1.66,2.88l-149.7,86.43c-.51,.3-1.09,.45-1.66,.45Zm-146.37-91.67l146.37,84.51,146.37-84.51V165.5L250,80.98,103.63,165.5v169.01Z"/><g><g class="f"><path class="c" d="M175.93,189.78c0-18.14,14.71-32.85,32.86-32.85s32.85,14.71,32.85,32.85v4.96c4.08,1.18,7.04,4.73,7.04,8.94,0,5.17-4.47,9.35-9.97,9.35-.09,0-.18,0-.27,0-5.29,11.06-16.57,18.7-29.65,18.7s-24.37-7.64-29.66-18.7c-.09,0-.17,0-.26,0-5.51,0-9.97-4.19-9.97-9.35,0-4.2,2.96-7.76,7.03-8.94v-4.96Z"/></g><path class="d" d="M208.78,235.04c-13.21,0-25.47-7.34-31.76-18.85-6.56-.93-11.45-6.19-11.45-12.52,0-4.78,2.74-9.02,7.03-11.19v-2.71c0-19.94,16.23-36.18,36.18-36.18s36.18,16.23,36.18,36.18v2.71c4.29,2.16,7.04,6.4,7.04,11.19,0,6.4-5,11.71-11.47,12.56-6.3,11.49-18.55,18.81-31.74,18.81Zm0-74.79c-16.28,0-29.53,13.24-29.53,29.53v7.46l-2.4,.69c-2.77,.8-4.63,3.1-4.63,5.74,0,3.32,2.98,6.03,6.65,6.03h2.1l1.16,1.88c4.88,10.21,15.34,16.81,26.66,16.81s21.78-6.6,26.65-16.81l.98-2.05,2.27,.18c3.67,0,6.65-2.71,6.65-6.04,0-2.64-1.86-4.94-4.64-5.74l-2.4-.69v-7.46c0-16.28-13.24-29.53-29.53-29.53Z"/></g><g><g class="f"><path class="b" d="M140.21,272.74l-.42,5.92-2.81,50.59h146.26v-5.58l-2.81-44.88-.11-1.8c-1.75-28.64-30.61-47.55-57.6-37.72l-1.46,.53c-8.99,3.27-18.88,3.12-27.78-.43-24.49-9.79-51.42,7.09-53.28,33.37Z"/></g><path class="d" d="M283.24,332.57H136.98c-.91,0-1.79-.38-2.42-1.04-.63-.66-.95-1.56-.9-2.47l3.23-56.56h0c.96-13.6,8.14-25.55,19.7-32.79,11.57-7.24,25.47-8.5,38.13-3.42,8.14,3.25,17.16,3.39,25.41,.39l1.45-.53c13.87-5.06,28.89-3.3,41.24,4.78,12.33,8.08,19.92,21.15,20.82,35.86l2.92,46.66v5.79c0,1.84-1.48,3.32-3.32,3.32Zm-142.75-6.65h139.42v-2.26l-2.91-46.47c-.77-12.6-7.27-23.79-17.83-30.71-10.56-6.92-23.43-8.42-35.31-4.1l-1.45,.53c-9.78,3.56-20.49,3.4-30.15-.47-10.67-4.26-22.38-3.21-32.13,2.89-9.74,6.1-15.79,16.17-16.6,27.63l-.42,5.92-2.61,47.03Z"/></g><path class="d" d="M306.46,224.95c-10.95,0-21.13-6.03-26.44-15.52-5.52-.92-9.61-5.42-9.61-10.82,0-4.03,2.24-7.62,5.78-9.54v-1.86c0-16.7,13.58-30.28,30.28-30.28s30.28,13.58,30.28,30.28v1.86c3.53,1.92,5.77,5.51,5.77,9.54,0,5.45-4.17,9.99-9.63,10.85-5.31,9.47-15.48,15.49-26.42,15.49Zm0-61.37c-13.03,0-23.63,10.6-23.63,23.63v6.56l-2.4,.69c-2.02,.58-3.38,2.25-3.38,4.14,0,2.4,2.18,4.34,4.86,4.34h2.09l1.12,1.89c3.91,8.17,12.28,13.46,21.33,13.46s17.43-5.28,21.33-13.46l.9-1.89h2.1c2.9,0,5.07-1.95,5.07-4.34,0-1.9-1.35-3.56-3.37-4.14l-2.4-.69v-6.56c0-13.03-10.6-23.63-23.63-23.63Z"/><path class="d" d="M361.69,296.54c-1.75,0-3.21-1.36-3.31-3.13l-2.05-34.7c-.58-9.58-5.24-17.57-12.8-22.54-7.62-4.99-16.9-6.07-25.47-2.97-7.46,2.71-15.69,2.79-23.16,.2l-6.06-2.1c-11.11-3.87-23.35,2.05-27.26,13.15-.61,1.73-2.5,2.64-4.24,2.03-1.73-.61-2.64-2.51-2.03-4.24,5.12-14.55,21.16-22.25,35.71-17.23l6.05,2.1c6.04,2.1,12.69,2.03,18.71-.16,10.55-3.83,21.99-2.51,31.38,3.66,9.34,6.12,15.08,16,15.76,27.1l2.08,35.31c.11,1.83-1.29,3.4-3.12,3.51-.06,0-.13,0-.2,0Z"/><path class="d" d="M279.92,289.89c1.83,0,3.32-1.46,3.32-3.32s-1.49-3.32-3.32-3.32v6.65Zm-80.14-5.65c-1.3,1.26-1.3,3.39,0,4.65l21.15,21.21c1.3,1.26,3.4,1.26,4.7,0,1.3-1.33,1.3-3.46,0-4.72l-18.8-18.81,18.8-18.81c1.3-1.26,1.3-3.39,0-4.72-1.3-1.26-3.4-1.26-4.7,0l-21.15,21.21Zm80.14-1h-77.78v6.65h77.78v-6.65Z"/><g class="g"><path class="e" d="M303.19,250c-1.83,0-3.32,1.49-3.32,3.32s1.49,3.32,3.32,3.32v-6.65Zm-16.62,33.24c-1.83,0-3.32,1.46-3.32,3.32s1.49,3.32,3.32,3.32v-6.65Zm16.62-26.59h19.94v-6.65h-19.94v6.65Zm19.94,26.59h-36.57v6.65h36.57v-6.65Zm13.3-13.3c0,7.31-5.95,13.3-13.3,13.3v6.65c11.02,0,19.94-8.91,19.94-19.94h-6.65Zm-13.3-13.3c7.35,0,13.3,5.98,13.3,13.3h6.65c0-11.04-8.93-19.94-19.94-19.94v6.65Z"/></g></svg>