<?xml version="1.0" encoding="UTF-8"?><svg id="a" xmlns="http://www.w3.org/2000/svg" viewBox="0 0 500 500"><defs><style>.b,.c{fill:#05f;}.d{fill:#04c;}.e{fill:#ff6b00;}.f{opacity:.2;}.g{opacity:.8;}.c{fill-rule:evenodd;}</style></defs><path class="d" d="M250,426.18c-.57,0-1.15-.15-1.66-.45l-149.7-86.43c-1.03-.59-1.66-1.69-1.66-2.88V163.57c0-1.19,.63-2.29,1.66-2.88L248.34,74.27c1.03-.6,2.3-.6,3.32,0l149.7,86.43c1.03,.59,1.66,1.69,1.66,2.88v172.85c0,1.19-.63,2.29-1.66,2.88l-149.7,86.43c-.51,.3-1.09,.45-1.66,.45Zm-146.37-91.67l146.37,84.51,146.37-84.51V165.5L250,80.98,103.63,165.5v169.01Z"/><g><g class="f"><path class="c" d="M161.17,197.17c0-14.89,12.07-26.95,26.96-26.95s26.95,12.07,26.95,26.95v4.07c3.34,.96,5.78,3.88,5.78,7.33,0,4.24-3.66,7.67-8.18,7.67h-.21c-4.34,9.08-13.61,15.34-24.33,15.34s-20-6.27-24.33-15.34h-.22c-4.51,0-8.18-3.43-8.18-7.67,0-3.45,2.43-6.37,5.77-7.33v-4.07Z"/></g><path class="d" d="M188.12,234.92c-10.96,0-21.13-6.03-26.44-15.52-5.53-.92-9.61-5.42-9.61-10.82,0-4.03,2.24-7.62,5.77-9.54v-1.86c0-16.7,13.59-30.28,30.28-30.28s30.28,13.58,30.28,30.28v1.86c3.54,1.92,5.78,5.51,5.78,9.54,0,5.45-4.17,9.99-9.63,10.84-5.32,9.48-15.49,15.5-26.43,15.5Zm0-61.37c-13.03,0-23.63,10.6-23.63,23.63v6.56l-2.4,.69c-2.02,.58-3.37,2.25-3.37,4.14,0,2.4,2.18,4.34,4.85,4.34h2.1l1.12,1.89c3.9,8.17,12.28,13.46,21.33,13.46s17.43-5.28,21.33-13.46l.91-1.89h2.09c2.89,0,5.07-1.95,5.07-4.34,0-1.9-1.36-3.56-3.38-4.14l-2.4-.69v-6.56c0-13.03-10.6-23.63-23.63-23.63Z"/></g><g><g class="f"><path class="b" d="M139.33,264.16l-.3,4.25-2.05,36.83h106.37v-4.12l-2.05-32.64-.07-1.26c-1.28-20.84-22.27-34.59-41.9-27.44l-1.06,.38c-6.54,2.39-13.73,2.27-20.2-.31-17.81-7.12-37.4,5.16-38.75,24.31Z"/></g><path class="d" d="M243.35,308.57h-106.37c-.91,0-1.79-.38-2.42-1.04s-.95-1.56-.9-2.47l2.35-41.14h0c.72-10.21,6.1-19.17,14.76-24.59,8.66-5.42,19.06-6.37,28.54-2.56,5.72,2.28,12.05,2.38,17.83,.27l1.06-.38c10.35-3.78,21.58-2.47,30.8,3.58,9.21,6.03,14.88,15.8,15.55,26.78l2.13,38.23c0,1.84-1.49,3.32-3.32,3.32Zm-102.86-6.65h99.53v-.8l-2.11-33.72c-.54-8.86-5.12-16.74-12.56-21.61-7.45-4.88-16.52-5.93-24.89-2.89l-1.06,.38c-7.31,2.67-15.33,2.54-22.56-.35-7.49-3-15.71-2.27-22.54,2.03-6.84,4.28-11.09,11.37-11.66,19.43l-.3,4.26-1.85,33.27Z"/></g><path class="d" d="M307.79,234.92c-10.95,0-21.12-6.03-26.44-15.52-5.52-.92-9.61-5.42-9.61-10.82,0-4.03,2.24-7.62,5.78-9.54v-1.86c0-16.7,13.58-30.28,30.27-30.28s30.28,13.58,30.28,30.28v1.86c3.54,1.92,5.78,5.51,5.78,9.54,0,5.45-4.17,9.99-9.63,10.84-5.31,9.47-15.48,15.5-26.43,15.5Zm0-61.37c-13.03,0-23.63,10.6-23.63,23.63v6.56l-2.4,.69c-2.02,.58-3.38,2.25-3.38,4.14,0,2.4,2.18,4.34,4.86,4.34h2.09l1.12,1.89c3.91,8.17,12.28,13.46,21.33,13.46s17.43-5.28,21.33-13.46l.9-1.89h2.1c2.89,0,5.07-1.95,5.07-4.34,0-1.9-1.36-3.56-3.38-4.14l-2.4-.69v-6.56c0-13.03-10.6-23.63-23.63-23.63Z"/><path class="d" d="M256.65,308.57c-.06,0-.12,0-.19,0-1.83-.1-3.24-1.67-3.13-3.5l2.35-41.14c.72-10.21,6.1-19.17,14.76-24.59,8.65-5.42,19.05-6.37,28.54-2.56,5.72,2.28,12.05,2.38,17.83,.27l1.06-.38c10.35-3.78,21.58-2.47,30.8,3.58,9.21,6.03,14.88,15.8,15.55,26.78l2.12,35.97c.11,1.83-1.29,3.4-3.12,3.51-1.77,.17-3.41-1.29-3.51-3.12l-2.12-35.97c-.54-8.86-5.12-16.74-12.56-21.61-7.45-4.88-16.52-5.93-24.89-2.89l-1.06,.38c-7.31,2.67-15.33,2.54-22.56-.35-7.49-3-15.71-2.27-22.54,2.03-6.84,4.28-11.09,11.37-11.66,19.43l-.3,4.26-2.05,36.78c-.1,1.77-1.56,3.14-3.31,3.14Z"/><path class="d" d="M322.9,282.05c0,1.53-.29,2.99-.88,4.32-.59,1.4-1.4,2.53-2.41,3.59-1,1-2.18,1.8-3.53,2.39-1.36,.6-2.8,.86-4.34,.86h-14.9v-7.45h14.9c.52,0,1-.13,1.46-.27,.45-.2,.84-.47,1.17-.8,.35-.33,.61-.73,.8-1.2,.19-.47,.29-.93,.29-1.46s-.1-1-.29-1.46c-.19-.47-.46-.8-.8-1.13-.33-.4-.72-.66-1.17-.86-.45-.13-.94-.27-1.46-.27h-10.15v-7.45h10.15c.52,0,1-.07,1.46-.27,.45-.2,.84-.47,1.17-.8,.35-.33,.61-.73,.8-1.2,.19-.47,.29-.93,.29-1.46s-.1-1-.29-1.46c-.19-.47-.46-.86-.8-1.2-.33-.33-.72-.6-1.17-.8-.45-.2-.94-.27-1.46-.27h-14.9v-7.46h14.9c1.54,0,2.99,.3,4.34,.88,1.35,.6,2.53,1.4,3.53,2.39,1.02,1.06,1.82,2.19,2.41,3.59,.59,1.33,.88,2.79,.88,4.32,0,1.33-.25,2.66-.75,3.99-.51,1.26-1.22,2.46-2.13,3.46,.92,1,1.63,2.19,2.13,3.46,.5,1.33,.75,2.59,.75,3.99Z"/><g class="g"><path class="e" d="M298.89,328.78c1.3-1.26,1.3-3.39,0-4.65l-21.15-21.21c-1.3-1.26-3.4-1.26-4.71,0-1.3,1.33-1.3,3.46,0,4.72l18.81,18.81-18.81,18.81c-1.3,1.26-1.3,3.39,0,4.72,1.3,1.26,3.4,1.26,4.71,0l21.15-21.21Zm-161.91-5.65c-1.83,0-3.32,1.46-3.32,3.32s1.49,3.32,3.32,3.32v-6.65Zm159.56,0H136.98v6.65h159.56v-6.65Z"/></g></svg>